SplineFontDB: 3.2
FontName: advancedtomato
FullName: advancedtomato
FamilyName: advancedtomato
Weight: Book
Copyright: 
UComments: "advancedtomato by lynx"
Version: 1.0
ItalicAngle: 0
UnderlinePosition: 0
UnderlineWidth: 0
Ascent: 480
Descent: 32
InvalidEm: 0
sfntRevision: 0x00010000
LayerCount: 2
Layer: 0 1 "Back" 1
Layer: 1 1 "Fore" 0
XUID: [1021 841 -455938822 2423595]
StyleMap: 0x0040
FSType: 8
OS2Version: 2
OS2_WeightWidthSlopeOnly: 0
OS2_UseTypoMetrics: 0
CreationTime: 1425627898
ModificationTime: 1639947296
PfmFamily: 17
TTFWeight: 400
TTFWidth: 5
LineGap: 46
VLineGap: 0
Panose: 2 0 5 9 0 0 0 0 0 0
OS2TypoAscent: 480
OS2TypoAOffset: 0
OS2TypoDescent: -32
OS2TypoDOffset: 0
OS2TypoLinegap: 46
OS2WinAscent: 512
OS2WinAOffset: 0
OS2WinDescent: 0
OS2WinDOffset: 0
HheadAscent: 512
HheadAOffset: 0
HheadDescent: 0
HheadDOffset: 0
OS2SubXSize: 332
OS2SubYSize: 358
OS2SubXOff: 0
OS2SubYOff: 71
OS2SupXSize: 332
OS2SupYSize: 358
OS2SupXOff: 0
OS2SupYOff: 245
OS2StrikeYSize: 25
OS2StrikeYPos: 132
OS2Vendor: 'PfEd'
OS2CodePages: 00000001.00000000
OS2UnicodeRanges: 00000000.10000000.00000000.00000000
MarkAttachClasses: 1
DEI: 91125
ShortTable: maxp 16
  1
  0
  46
  144
  15
  0
  0
  2
  0
  1
  1
  0
  64
  0
  0
  0
EndShort
LangName: 1033 "" "" "Regular" "FontForge 2.0 : advancedtomato : 6-3-2015" "" "Version 1.0"
GaspTable: 1 65535 2 0
Encoding: UnicodeBmp
UnicodeInterp: none
NameList: AGL For New Fonts
DisplaySize: -48
AntiAlias: 1
FitToEm: 0
WinInfo: 57320 20 9
BeginPrivate: 0
EndPrivate
BeginChars: 65539 46

StartChar: uniE000
Encoding: 57344 57344 3
Width: 512
GlyphClass: 2
Flags: W
LayerCount: 2
Fore
SplineSet
317 169 m 1,0,1
 330 156 330 156 317 144 c 256,2,3
 304 132 304 132 293 144 c 2,4,-1
 194 244 l 2,5,6
 182 256 182 256 194 269 c 2,7,-1
 293 369 l 2,8,9
 304 382 304 382 317 369 c 0,10,11
 330 357 330 357 317 344 c 2,12,-1
 237 256 l 1,13,-1
 317 169 l 1,14,-1
 317 169 l 1,0,1
EndSplineSet
Validated: 37
EndChar

StartChar: uniE001
Encoding: 57345 57345 4
Width: 512
GlyphClass: 2
Flags: W
LayerCount: 2
Fore
SplineSet
195 169 m 1,0,-1
 276 256 l 1,1,-1
 195 344 l 2,2,3
 182 357 182 357 195 369 c 0,4,5
 208 382 208 382 219 369 c 2,6,-1
 318 269 l 2,7,8
 330 256 330 256 318 244 c 2,9,-1
 219 144 l 2,10,11
 208 132 208 132 195 144 c 256,12,13
 182 156 182 156 195 169 c 1,14,-1
 195 169 l 1,0,-1
EndSplineSet
Validated: 37
EndChar

StartChar: uniE002
Encoding: 57346 57346 5
Width: 512
GlyphClass: 2
Flags: W
LayerCount: 2
Fore
SplineSet
169 195 m 1,0,1
 156 183 156 183 143 195 c 0,2,3
 131 207 131 207 143 220 c 2,4,-1
 244 317 l 2,5,6
 258 330 258 330 268 317 c 2,7,-1
 369 220 l 2,8,9
 381 207 381 207 369 195 c 0,10,11
 356 183 356 183 343 195 c 2,12,-1
 256 275 l 1,13,-1
 169 195 l 1,14,-1
 169 195 l 1,0,1
EndSplineSet
Validated: 37
EndChar

StartChar: uniE003
Encoding: 57347 57347 6
Width: 512
GlyphClass: 2
Flags: W
LayerCount: 2
Fore
SplineSet
344 317 m 1,0,1
 356 330 356 330 369 317 c 0,2,3
 382 306 382 306 369 293 c 2,4,-1
 268 195 l 2,5,6
 258 183 258 183 244 195 c 2,7,-1
 143 293 l 2,8,9
 130 306 130 306 143 317 c 0,10,11
 156 330 156 330 169 317 c 2,12,-1
 256 238 l 1,13,-1
 344 317 l 1,14,-1
 344 317 l 1,0,1
EndSplineSet
Validated: 37
EndChar

StartChar: uniE004
Encoding: 57348 57348 7
Width: 512
GlyphClass: 2
Flags: W
LayerCount: 2
Fore
SplineSet
141 148 m 1,0,-1
 201 208 l 1,1,-1
 201 58 l 1,2,-1
 59 67 l 1,3,-1
 104 111 l 1,4,5
 45 174 45 174 46 259 c 0,6,7
 48 347 48 347 108 407 c 0,8,9
 158 457 158 457 230 466 c 1,10,-1
 232 414 l 1,11,12
 182 405 182 405 144 369 c 0,13,14
 100 325 100 325 98 260 c 0,15,16
 98 195 98 195 141 148 c 1,0,-1
311 455 m 1,17,-1
 453 446 l 1,18,-1
 408 402 l 1,19,20
 467 339 467 339 466 254 c 0,21,22
 464 166 464 166 404 106 c 0,23,24
 356 57 356 57 282 46 c 1,25,-1
 281 99 l 1,26,27
 330 108 330 108 368 144 c 0,28,29
 412 188 412 188 414 253 c 0,30,31
 414 318 414 318 371 365 c 1,32,-1
 312 305 l 1,33,-1
 311 455 l 1,34,-1
 311 455 l 1,17,-1
EndSplineSet
Validated: 37
EndChar

StartChar: uniE005
Encoding: 57349 57349 8
Width: 512
GlyphClass: 2
Flags: W
LayerCount: 2
Fore
SplineSet
283 77 m 1,0,-1
 283 128 l 1,1,-1
 333 128 l 1,2,-1
 333 77 l 2,3,4
 333 56 333 56 318 41 c 128,-1,5
 303 26 303 26 282 26 c 2,6,-1
 77 26 l 2,7,8
 56 26 56 26 41 41 c 128,-1,9
 26 56 26 56 26 77 c 2,10,-1
 26 435 l 2,11,12
 26 457 26 457 41 472 c 0,13,14
 57 486 57 486 77 486 c 2,15,-1
 282 486 l 2,16,17
 302 486 302 486 318 472 c 0,18,19
 333 457 333 457 333 435 c 2,20,-1
 333 358 l 1,21,-1
 283 358 l 1,22,-1
 283 435 l 1,23,-1
 77 435 l 1,24,-1
 77 77 l 1,25,-1
 283 77 l 1,0,-1
486 244 m 1,26,-1
 385 143 l 1,27,-1
 385 205 l 1,28,-1
 155 205 l 1,29,-1
 155 282 l 1,30,-1
 385 282 l 1,31,-1
 385 343 l 1,32,-1
 486 244 l 1,33,-1
 486 244 l 1,26,-1
EndSplineSet
Validated: 5
EndChar

StartChar: uniE006
Encoding: 57350 57350 9
Width: 512
GlyphClass: 2
Flags: W
LayerCount: 2
Fore
SplineSet
212 77 m 1,0,1
 195 77 195 77 184 91 c 2,2,-1
 92 212 l 2,3,4
 83 224 83 224 86 239 c 0,5,6
 88 253 88 253 99 262 c 0,7,8
 111 272 111 272 125 269 c 0,9,10
 140 268 140 268 149 255 c 2,11,-1
 209 176 l 1,12,-1
 361 419 l 2,13,14
 368 431 368 431 383 434 c 0,15,16
 397 437 397 437 410 430 c 0,17,18
 422 423 422 423 425 408 c 0,19,20
 429 396 429 396 421 381 c 2,21,-1
 242 94 l 2,22,23
 232 78 232 78 214 78 c 1,24,-1
 212 77 l 1,25,-1
 212 77 l 1,0,1
EndSplineSet
Validated: 37
EndChar

StartChar: uniE008
Encoding: 57352 57352 10
Width: 512
GlyphClass: 2
Flags: W
LayerCount: 2
Fore
SplineSet
372 410 m 1,0,1
 410 410 410 410 410 377 c 2,2,-1
 410 136 l 2,3,4
 410 102 410 102 372 102 c 2,5,-1
 141 102 l 2,6,7
 102 102 102 102 102 136 c 2,8,-1
 102 377 l 2,9,10
 102 396 102 396 112 402 c 0,11,12
 122 410 122 410 141 410 c 2,13,-1
 372 410 l 1,14,-1
 372 410 l 1,0,1
EndSplineSet
Validated: 5
EndChar

StartChar: uniE009
Encoding: 57353 57353 11
Width: 512
GlyphClass: 2
Flags: W
LayerCount: 2
Fore
SplineSet
377 269 m 1,0,1
 384 265 384 265 384 256 c 0,2,3
 384 248 384 248 377 244 c 2,4,-1
 158 108 l 2,5,6
 146 99 146 99 137 104 c 0,7,8
 128 110 128 110 128 125 c 2,9,-1
 128 388 l 2,10,11
 128 403 128 403 137 409 c 0,12,13
 146 414 146 414 158 406 c 2,14,-1
 377 269 l 1,15,-1
 377 269 l 1,0,1
EndSplineSet
Validated: 37
EndChar

StartChar: uniE00A
Encoding: 57354 57354 12
Width: 512
GlyphClass: 2
Flags: W
LayerCount: 2
Fore
SplineSet
79 336 m 0,0,1
 78 335 78 335 73 325 c 0,2,3
 72 320 72 320 72 312 c 0,4,5
 72 306 72 306 71 306 c 2,6,-1
 70 305 l 2,7,8
 68 304 68 304 66 302 c 128,-1,9
 64 300 64 300 62 298 c 0,10,11
 57 294 57 294 53 290 c 0,12,13
 44 283 44 283 38 292 c 2,14,-1
 2 331 l 2,15,16
 -3 337 -3 337 3 343 c 0,17,18
 4 344 4 344 13 350 c 2,19,-1
 23 358 l 2,20,21
 26 361 26 361 37 361 c 0,22,23
 46 361 46 361 56 369 c 0,24,25
 62 375 62 375 65 388 c 0,26,27
 66 399 66 399 70 403 c 2,28,-1
 72 404 l 2,29,30
 73 406 73 406 75 407 c 0,31,32
 81 413 81 413 88 418 c 0,33,34
 102 430 102 430 109 434 c 0,35,36
 177 480 177 480 204 483 c 0,37,38
 271 483 271 483 280 482 c 0,39,40
 285 482 285 482 276 478 c 0,41,42
 214 451 214 451 198 439 c 0,43,44
 157 410 157 410 179 381 c 0,45,46
 194 361 194 361 199 356 c 0,47,48
 204 353 204 353 198 349 c 2,49,-1
 196 347 l 2,50,51
 193 345 193 345 188.5 340.5 c 128,-1,52
 184 336 184 336 178 331 c 0,53,54
 166 320 166 320 159 313 c 0,55,56
 151 310 151 310 150 311 c 0,57,58
 128 336 128 336 113 342 c 0,59,60
 99 348 99 348 79 336 c 0,0,1
226 323 m 2,61,-1
 435 79 l 2,62,63
 445 68 445 68 434 59 c 2,64,-1
 410 38 l 2,65,66
 399 31 399 31 390 40 c 2,67,-1
 178 282 l 2,68,69
 175 285 175 285 178 292 c 2,70,-1
 215 324 l 2,71,72
 222 327 222 327 226 323 c 2,61,-1
509 426 m 0,73,74
 518 373 518 373 501 341 c 0,75,76
 475 296 475 296 422 309 c 0,77,78
 393 315 393 315 371 293 c 2,79,-1
 329 253 l 1,80,-1
 294 293 l 1,81,-1
 329 329 l 2,82,83
 340 340 340 340 345 356 c 0,84,85
 348 371 348 371 348 389 c 0,86,87
 348 411 348 411 350 419 c 0,88,89
 358 448 358 448 422 476 c 0,90,91
 428 479 428 479 431 475 c 0,92,93
 435 470 435 470 432 467 c 0,94,95
 426 460 426 460 409 426 c 1,96,97
 402 422 402 422 403 408 c 0,98,99
 403 395 403 395 423 381 c 0,100,101
 452 360 452 360 472 392 c 0,102,103
 474 395 474 395 486 413 c 0,104,105
 495 428 495 428 497 430 c 0,106,107
 499 435 499 435 504 435 c 0,108,109
 509 433 509 433 509 426 c 0,73,74
70 76 m 1,110,-1
 200 203 l 1,111,-1
 239 159 l 1,112,-1
 113 35 l 2,113,114
 103 25 103 25 93 33 c 2,115,-1
 70 56 l 2,116,117
 58 65 58 65 70 76 c 1,118,-1
 70 76 l 1,110,-1
EndSplineSet
Validated: 37
EndChar

StartChar: uniE00B
Encoding: 57355 57355 13
Width: 512
GlyphClass: 2
Flags: W
LayerCount: 2
Fore
SplineSet
478 232 m 2,0,1
 491 210 491 210 485 183 c 2,2,-1
 468 89 l 2,3,4
 466 78 466 78 458 71 c 0,5,6
 448 63 448 63 438 63 c 2,7,-1
 73 63 l 2,8,9
 64 63 64 63 54 71 c 128,-1,10
 44 79 44 79 44 89 c 2,11,-1
 26 183 l 2,12,13
 22 208 22 208 33 232 c 2,14,-1
 114 424 l 2,15,16
 126 447 126 447 151 447 c 2,17,-1
 360 447 l 2,18,19
 386 447 386 447 398 424 c 2,20,-1
 478 232 l 2,0,1
443 165 m 1,21,22
 445 176 445 176 438 184 c 0,23,24
 432 193 432 193 420 193 c 2,25,-1
 91 193 l 2,26,27
 79 193 79 193 73 184 c 0,28,29
 66 176 66 176 68 165 c 2,30,-1
 75 127 l 2,31,32
 76 115 76 115 85 108 c 0,33,34
 95 100 95 100 105 100 c 2,35,-1
 407 100 l 2,36,37
 417 100 417 100 427 108 c 0,38,39
 436 115 436 115 437 127 c 2,40,-1
 443 165 l 1,41,-1
 443 165 l 1,21,22
EndSplineSet
Validated: 37
EndChar

StartChar: uniE00D
Encoding: 57357 57357 14
Width: 512
GlyphClass: 2
Flags: W
LayerCount: 2
Fore
SplineSet
256 448 m 128,-1,1
 176 448 176 448 120 392 c 128,-1,2
 64 336 64 336 64 256 c 128,-1,3
 64 176 64 176 120 120 c 128,-1,4
 176 64 176 64 256 64 c 128,-1,5
 336 64 336 64 392 120 c 128,-1,6
 448 176 448 176 448 256 c 128,-1,7
 448 336 448 336 392 392 c 128,-1,0
 336 448 336 448 256 448 c 128,-1,1
256 115 m 0,8,9
 198 115 198 115 156.5 156.5 c 128,-1,10
 115 198 115 198 115 256 c 0,11,12
 115 308 115 308 148 346 c 1,13,-1
 346 148 l 1,14,15
 308 115 308 115 256 115 c 0,8,9
364 166 m 1,16,-1
 166 364 l 1,17,18
 204 397 204 397 256 397 c 0,19,20
 314 397 314 397 355.5 355.5 c 128,-1,21
 397 314 397 314 397 256 c 0,22,23
 397 204 397 204 364 166 c 1,16,-1
EndSplineSet
Validated: 9
EndChar

StartChar: uniE00E
Encoding: 57358 57358 15
Width: 512
GlyphClass: 2
Flags: W
LayerCount: 2
Fore
SplineSet
256 502 m 0,0,1
 358 502 358 502 430 430 c 0,2,3
 502 356 502 356 502 256 c 0,4,5
 502 154 502 154 430 82 c 128,-1,6
 358 10 358 10 256 10 c 0,7,8
 156 10 156 10 82 82 c 0,9,10
 10 154 10 154 10 256 c 0,11,12
 10 356 10 356 82 430 c 0,13,14
 156 502 156 502 256 502 c 0,0,1
466 256 m 0,15,16
 466 325 466 325 426 378 c 0,17,18
 386 432 386 432 323 455 c 1,19,20
 314 443 314 443 314 438 c 0,21,22
 317 419 317 419 324 412 c 0,23,24
 330 406 330 406 339 409 c 2,25,-1
 355 415 l 2,26,27
 359 415 359 415 366 416 c 1,28,29
 376 404 376 404 366 392 c 0,30,31
 354 380 354 380 343 363 c 0,32,33
 331 347 331 347 342 324 c 0,34,35
 360 291 360 291 391 291 c 0,36,37
 406 290 406 290 413 272 c 0,38,39
 420 256 420 256 422 239 c 0,40,41
 427 196 427 196 415 167 c 0,42,43
 403 145 403 145 422 128 c 1,44,45
 466 186 466 186 466 256 c 0,15,16
227 463 m 1,46,47
 169 455 169 455 125 420 c 0,48,49
 81 384 81 384 60 331 c 1,50,-1
 64 330 l 2,51,52
 68 330 68 330 72 330 c 0,53,54
 74 330 74 330 79 329.5 c 128,-1,55
 84 329 84 329 86 328 c 0,56,57
 91 328 91 328 99 326 c 128,-1,58
 107 324 107 324 112 322 c 0,59,60
 117 319 117 319 118 315 c 0,61,62
 120 309 120 309 111 292 c 0,63,64
 101 276 101 276 101 261 c 128,-1,65
 101 246 101 246 121 232 c 0,66,67
 140 220 140 220 140 209 c 0,68,69
 140 202 140 202 144 174 c 0,70,71
 148 155 148 155 148 152 c 0,72,73
 148 146 148 146 167 124 c 128,-1,74
 186 102 186 102 194 102 c 0,75,76
 199 102 199 102 199 114 c 0,77,78
 200 120 200 120 198 141 c 0,79,80
 197 152 197 152 197 162 c 0,81,82
 197 179 197 179 204 200 c 0,83,84
 210 221 210 221 234 236 c 0,85,86
 257 249 257 249 262 259 c 0,87,88
 270 275 270 275 267 290 c 0,89,90
 263 304 263 304 258 312 c 0,91,92
 254 321 254 321 241 327 c 0,93,94
 225 334 225 334 220 335 c 0,95,96
 208 339 208 339 201 340 c 0,97,98
 197 341 197 341 192 342 c 2,99,-1
 189 342 l 2,100,101
 183 344 183 344 168 346 c 0,102,103
 156 346 156 346 150 344 c 128,-1,104
 144 342 144 342 136 350 c 0,105,106
 127 358 127 358 127 365 c 0,107,108
 127 370 127 370 135 378 c 0,109,110
 140 384 140 384 153 397 c 0,111,112
 155 400 155 400 160 405.5 c 128,-1,113
 165 411 165 411 167 413 c 0,114,115
 173 421 173 421 176 423 c 0,116,117
 182 429 182 429 187 432 c 0,118,119
 188 433 188 433 193 436.5 c 128,-1,120
 198 440 198 440 201 442 c 0,121,122
 203 445 203 445 214 451 c 0,123,124
 225 459 225 459 227 463 c 1,46,47
190 56 m 1,125,126
 223 46 223 46 256 46 c 0,127,128
 320 46 320 46 372 81 c 1,129,130
 358 104 358 104 311 98 c 0,131,132
 300 98 300 98 278 90 c 0,133,134
 272 87 272 87 266.5 85 c 128,-1,135
 261 83 261 83 258 82 c 128,-1,136
 255 81 255 81 254 81 c 0,137,138
 221 73 221 73 215 73 c 0,139,140
 209 71 209 71 202 66 c 0,141,142
 196 60 196 60 190 56 c 1,143,-1
 190 56 l 1,125,126
EndSplineSet
Validated: 37
EndChar

StartChar: uniE010
Encoding: 57360 57360 16
Width: 512
GlyphClass: 2
Flags: W
LayerCount: 2
Fore
SplineSet
450 117 m 2,0,1
 465 99 465 99 453 85 c 2,2,-1
 429 61 l 2,3,4
 411 46 411 46 394 61 c 2,5,-1
 297 159 l 1,6,7
 260 137 260 137 217 137 c 0,8,9
 151 137 151 137 103 186 c 0,10,11
 54 234 54 234 54 300 c 0,12,13
 54 364 54 364 100 412 c 0,14,15
 147 459 147 459 212 459 c 0,16,17
 278 459 278 459 327 410 c 128,-1,18
 376 361 376 361 376 296 c 0,19,20
 376 250 376 250 352 213 c 1,21,-1
 450 117 l 2,0,1
102 300 m 1,22,23
 102 255 102 255 137 220 c 128,-1,24
 172 185 172 185 217 185 c 128,-1,25
 262 185 262 185 294 218 c 0,26,27
 327 250 327 250 327 296 c 0,28,29
 327 340 327 340 292 375 c 128,-1,30
 257 410 257 410 212 410 c 0,31,32
 166 410 166 410 135 377 c 0,33,34
 102 346 102 346 102 300 c 1,35,-1
 102 300 l 1,22,23
EndSplineSet
Validated: 37
EndChar

StartChar: uniE011
Encoding: 57361 57361 17
Width: 512
GlyphClass: 2
Flags: W
LayerCount: 2
Fore
SplineSet
425 249 m 1,0,-1
 327 249 l 1,1,-1
 327 70 l 1,2,-1
 185 70 l 1,3,-1
 185 249 l 1,4,-1
 87 249 l 1,5,-1
 256 443 l 1,6,-1
 425 249 l 1,7,-1
 425 249 l 1,0,-1
EndSplineSet
Validated: 5
EndChar

StartChar: uniE012
Encoding: 57362 57362 18
Width: 512
GlyphClass: 2
Flags: W
LayerCount: 2
Fore
SplineSet
425 264 m 1,0,-1
 256 70 l 1,1,-1
 87 264 l 1,2,-1
 185 264 l 1,3,-1
 185 443 l 1,4,-1
 327 443 l 1,5,-1
 327 264 l 1,6,-1
 425 264 l 1,7,-1
 425 264 l 1,0,-1
EndSplineSet
Validated: 5
EndChar

StartChar: uniE013
Encoding: 57363 57363 19
Width: 512
GlyphClass: 2
Flags: W
LayerCount: 2
Fore
SplineSet
302 206 m 1,0,1
 196 206 196 206 132 183 c 0,2,3
 69 159 69 159 26 82 c 1,4,5
 28 92 28 92 32 109 c 0,6,7
 36 123 36 123 58 169 c 0,8,9
 79 213 79 213 107 245 c 0,10,11
 136 279 136 279 187 305 c 0,12,13
 238 332 238 332 302 332 c 1,14,-1
 302 430 l 1,15,-1
 486 265 l 1,16,-1
 302 94 l 1,17,-1
 302 206 l 1,18,-1
 302 206 l 1,0,1
EndSplineSet
Validated: 5
EndChar

StartChar: uniE015
Encoding: 57365 57365 20
Width: 512
GlyphClass: 2
Flags: W
LayerCount: 2
Fore
SplineSet
208 168 m 0,0,1
 224 196 224 196 317 313 c 0,2,3
 365 373 365 373 389 400.5 c 128,-1,4
 413 428 413 428 417 426 c 0,5,6
 422 423 422 423 368 284 c 0,7,8
 313 146 313 146 297 117 c 0,9,10
 272 73 272 73 227 98 c 0,11,12
 182 124 182 124 208 168 c 0,0,1
256 362 m 0,13,14
 169 362 169 362 111 297 c 0,15,16
 51 232 51 232 51 138 c 0,17,18
 51 132 51 132 51.5 124.5 c 128,-1,19
 52 117 52 117 52 115 c 0,20,21
 53 103 53 103 46 96 c 0,22,23
 38 88 38 88 29 87 c 0,24,25
 19 86 19 86 10 93 c 0,26,27
 2 100 2 100 1 111 c 2,28,-1
 1 124 l 2,29,30
 0 130 0 130 0 138 c 0,31,32
 0 254 0 254 74 334 c 0,33,34
 149 414 149 414 256 414 c 0,35,36
 294 414 294 414 325 404 c 1,37,-1
 289 360 l 1,38,39
 275 362 275 362 256 362 c 0,13,14
441 331 m 1,40,41
 512 251 512 251 512 138 c 0,42,43
 512 116 512 116 511 110 c 0,44,45
 509 98 509 98 503 93 c 0,46,47
 496 86 496 86 485 86 c 2,48,-1
 483 86 l 2,49,50
 474 87 474 87 465 96 c 0,51,52
 459 106 459 106 460 115 c 0,53,54
 460 116 460 116 460.5 124 c 128,-1,55
 461 132 461 132 461 138 c 0,56,57
 461 214 461 214 420 275 c 0,58,59
 421 277 421 277 424 286 c 128,-1,60
 427 295 427 295 430 302 c 0,61,62
 439 323 439 323 441 331 c 1,63,-1
 441 331 l 1,40,41
EndSplineSet
Validated: 37
EndChar

StartChar: uniE016
Encoding: 57366 57366 21
Width: 512
GlyphClass: 2
Flags: W
LayerCount: 2
Fore
SplineSet
376 255 m 0,0,1
 436 236 436 236 436 185 c 0,2,3
 436 133 436 133 371 84 c 0,4,5
 306 36 306 36 211 36 c 0,6,7
 129 36 129 36 65 76 c 0,8,9
 1 115 1 115 1 176 c 0,10,11
 1 243 1 243 76 319 c 0,12,13
 121 366 121 366 171 386 c 0,14,15
 220 404 220 404 240 384 c 0,16,17
 258 366 258 366 245 325 c 0,18,19
 242 317 242 317 249 317 c 2,20,-1
 257 318 l 1,21,22
 294 336 294 336 326 336 c 0,23,24
 356 336 356 336 369 318 c 0,25,26
 380 301 380 301 368 267 c 0,27,28
 365 258 365 258 376 255 c 0,0,1
211 74 m 0,29,30
 273 80 273 80 314 113 c 0,31,32
 356 146 356 146 351 187 c 0,33,34
 346 229 346 229 300 253 c 256,35,36
 254 277 254 277 191 271 c 128,-1,37
 128 265 128 265 88 232 c 0,38,39
 47 199 47 199 52 158 c 0,40,41
 56 118 56 118 102 92 c 0,42,43
 148 68 148 68 211 74 c 0,29,30
511 324 m 2,44,-1
 511 323 l 2,45,46
 511 316 511 316 505 310 c 0,47,48
 500 305 500 305 493 305 c 0,49,50
 487 305 487 305 480 310 c 0,51,52
 475 317 475 317 475 323 c 0,53,54
 475 372 475 372 440 406 c 0,55,56
 406 440 406 440 357 440 c 0,57,58
 349 440 349 440 344 445 c 0,59,60
 339 452 339 452 339 459 c 0,61,62
 339 476 339 476 357 476 c 0,63,64
 420 476 420 476 466 432 c 0,65,66
 511 387 511 387 511 324 c 2,44,-1
439 326 m 0,67,68
 442 319 442 319 437 312 c 0,69,70
 434 306 434 306 426 304 c 0,71,72
 409 303 409 303 404 318 c 0,73,74
 401 339 401 339 386 352 c 0,75,76
 372 366 372 366 352 371 c 0,77,78
 334 374 334 374 339 391 c 0,79,80
 344 409 344 409 360 406 c 0,81,82
 391 398 391 398 412 377 c 128,-1,83
 433 356 433 356 439 326 c 0,67,68
169 218 m 1,84,85
 191 224 191 224 214 212 c 0,86,87
 235 200 235 200 239 180 c 0,88,89
 244 159 244 159 229 141 c 0,90,91
 214 121 214 121 188 118 c 0,92,93
 164 112 164 112 143 124 c 0,94,95
 124 134 124 134 119 156 c 0,96,97
 114 176 114 176 129 195 c 0,98,99
 145 214 145 214 169 218 c 1,100,-1
 169 218 l 1,84,85
EndSplineSet
Validated: 33
EndChar

StartChar: uniE017
Encoding: 57367 57367 22
Width: 512
GlyphClass: 2
Flags: W
LayerCount: 2
Fore
SplineSet
185 231 m 2,0,-1
 52 98 l 2,1,2
 49 95 49 95 46 95 c 0,3,4
 42 95 42 95 39 98 c 2,5,-1
 25 112 l 2,6,7
 22 115 22 115 22 119 c 0,8,9
 22 124 22 124 25 125 c 2,10,-1
 137 238 l 1,11,-1
 25 350 l 2,12,13
 22 353 22 353 22 357 c 0,14,15
 22 360 22 360 25 363 c 2,16,-1
 39 377 l 2,17,18
 42 380 42 380 46 380 c 0,19,20
 49 380 49 380 52 377 c 2,21,-1
 185 244 l 2,22,23
 188 241 188 241 188 238 c 0,24,25
 188 234 188 234 185 231 c 2,0,-1
494 101 m 2,26,-1
 494 82 l 2,27,28
 494 78 494 78 491 76 c 0,29,30
 488 73 488 73 485 73 c 2,31,-1
 210 73 l 2,32,33
 206 73 206 73 204 76 c 0,34,35
 201 78 201 78 201 82 c 2,36,-1
 201 101 l 2,37,38
 201 104 201 104 204 107 c 0,39,40
 206 110 206 110 210 110 c 2,41,-1
 485 110 l 2,42,43
 488 110 488 110 491 107 c 128,-1,44
 494 104 494 104 494 101 c 2,26,-1
EndSplineSet
Validated: 1
EndChar

StartChar: uniE019
Encoding: 57369 57369 23
Width: 512
GlyphClass: 2
Flags: W
LayerCount: 2
Fore
SplineSet
389 282 m 1,0,1
 404 282 404 282 404 256 c 128,-1,2
 404 230 404 230 389 230 c 2,3,-1
 123 230 l 2,4,5
 108 230 108 230 108 256 c 128,-1,6
 108 282 108 282 123 282 c 2,7,-1
 389 282 l 1,8,-1
 389 282 l 1,0,1
EndSplineSet
Validated: 5
EndChar

StartChar: uniE01A
Encoding: 57370 57370 24
Width: 512
GlyphClass: 2
Flags: W
LayerCount: 2
Fore
SplineSet
256 474 m 1,0,-1
 389 349 l 1,1,-1
 305 349 l 1,2,-1
 305 218 l 1,3,-1
 208 218 l 1,4,-1
 208 349 l 1,5,-1
 123 349 l 1,6,-1
 256 474 l 1,0,-1
495 178 m 1,7,8
 504 174 504 174 509 162 c 0,9,10
 514 149 514 149 511 141 c 2,11,-1
 497 62 l 2,12,13
 494 52 494 52 485 46 c 0,14,15
 477 39 477 39 465 39 c 2,16,-1
 47 39 l 2,17,18
 36 39 36 39 26 46 c 0,19,20
 19 51 19 51 15 62 c 2,21,-1
 1 141 l 2,22,23
 -5 166 -5 166 17 178 c 2,24,-1
 98 233 l 1,25,-1
 148 233 l 1,26,-1
 61 167 l 1,27,-1
 152 167 l 2,28,29
 156 167 156 167 159 163 c 2,30,-1
 179 106 l 1,31,-1
 333 106 l 1,32,-1
 353 163 l 2,33,34
 357 167 357 167 359 167 c 2,35,-1
 450 167 l 1,36,-1
 363 233 l 1,37,-1
 414 233 l 1,38,-1
 495 178 l 1,39,-1
 495 178 l 1,7,8
EndSplineSet
Validated: 37
EndChar

StartChar: uniE01B
Encoding: 57371 57371 25
Width: 512
GlyphClass: 2
Flags: W
LayerCount: 2
Fore
SplineSet
495 178 m 2,0,1
 504 174 504 174 509 162 c 0,2,3
 514 149 514 149 511 141 c 2,4,-1
 497 62 l 2,5,6
 494 52 494 52 485 46 c 0,7,8
 477 39 477 39 465 39 c 2,9,-1
 47 39 l 2,10,11
 36 39 36 39 26 46 c 0,12,13
 19 51 19 51 15 62 c 2,14,-1
 1 141 l 2,15,16
 -5 166 -5 166 17 178 c 2,17,-1
 98 233 l 1,18,-1
 148 233 l 1,19,-1
 61 167 l 1,20,-1
 152 167 l 2,21,22
 156 167 156 167 159 163 c 2,23,-1
 179 106 l 1,24,-1
 333 106 l 1,25,-1
 353 163 l 2,26,27
 357 167 357 167 359 167 c 2,28,-1
 450 167 l 1,29,-1
 363 233 l 1,30,-1
 414 233 l 1,31,-1
 495 178 l 2,0,1
389 343 m 1,32,-1
 256 218 l 1,33,-1
 123 343 l 1,34,-1
 208 343 l 1,35,-1
 208 474 l 1,36,-1
 305 474 l 1,37,-1
 305 343 l 1,38,-1
 389 343 l 1,39,-1
 389 343 l 1,32,-1
EndSplineSet
Validated: 37
EndChar

StartChar: uniE01C
Encoding: 57372 57372 26
Width: 512
GlyphClass: 2
Flags: W
LayerCount: 2
Fore
SplineSet
213 331 m 0,0,1
 246 331 246 331 269.5 309.5 c 128,-1,2
 293 288 293 288 298 256 c 1,3,-1
 373 256 l 1,4,5
 372 268 372 268 368 285 c 1,6,-1
 429 320 l 1,7,-1
 386 394 l 1,8,-1
 325 359 l 1,9,10
 295 389 295 389 256 399 c 1,11,-1
 256 469 l 1,12,-1
 171 469 l 1,13,-1
 171 399 l 1,14,15
 131 388 131 388 101 359 c 1,16,-1
 41 394 l 1,17,-1
 -2 320 l 1,18,-1
 59 285 l 1,19,20
 53 267 53 267 53 245 c 0,21,22
 53 224 53 224 59 205 c 1,23,-1
 -2 170 l 1,24,-1
 41 96 l 1,25,-1
 101 131 l 1,26,27
 131 103 131 103 171 91 c 1,28,-1
 171 21 l 1,29,-1
 256 21 l 1,30,-1
 256 172 l 1,31,32
 234 160 234 160 213 160 c 0,33,34
 178 160 178 160 153 185 c 128,-1,35
 128 210 128 210 128 245 c 128,-1,36
 128 280 128 280 153 305.5 c 128,-1,37
 178 331 178 331 213 331 c 0,0,1
491 128 m 128,-1,39
 491 135 491 135 487 151 c 1,40,-1
 527 174 l 1,41,-1
 505 210 l 1,42,-1
 466 188 l 1,43,44
 450 204 450 204 427 210 c 1,45,-1
 427 256 l 1,46,-1
 384 256 l 1,47,-1
 384 210 l 1,48,49
 359 203 359 203 344 188 c 1,50,-1
 305 210 l 1,51,-1
 284 174 l 1,52,-1
 323 151 l 1,53,54
 320 139 320 139 320 128 c 128,-1,55
 320 117 320 117 323 105 c 1,56,-1
 284 82 l 1,57,-1
 305 46 l 1,58,-1
 344 68 l 1,59,60
 359 53 359 53 384 46 c 1,61,-1
 384 0 l 1,62,-1
 427 0 l 1,63,-1
 427 46 l 1,64,65
 450 52 450 52 466 68 c 1,66,-1
 506 46 l 1,67,-1
 527 82 l 1,68,-1
 487 105 l 1,69,38
 491 121 491 121 491 128 c 128,-1,39
405 85 m 0,70,71
 388 85 388 85 375.5 97.5 c 128,-1,72
 363 110 363 110 363 128 c 128,-1,73
 363 146 363 146 375.5 158.5 c 128,-1,74
 388 171 388 171 405 171 c 0,75,76
 423 171 423 171 435.5 158.5 c 128,-1,77
 448 146 448 146 448 128 c 128,-1,78
 448 110 448 110 435.5 97.5 c 128,-1,79
 423 85 423 85 405 85 c 0,70,71
EndSplineSet
Validated: 9
EndChar

StartChar: uniE014
Encoding: 57364 57364 27
Width: 512
GlyphClass: 2
Flags: W
LayerCount: 2
Fore
SplineSet
318 512 m 0,0,1
 342 512 342 512 356 498 c 128,-1,2
 370 484 370 484 370 463 c 0,3,4
 370 438 370 438 350 418 c 0,5,6
 328 398 328 398 301 398 c 0,7,8
 277 398 277 398 263 412 c 0,9,10
 250 425 250 425 251 449 c 0,11,12
 251 472 251 472 269 492 c 128,-1,13
 287 512 287 512 318 512 c 0,0,1
213 0 m 1,14,15
 163 0 163 0 185 91 c 2,16,-1
 216 221 l 2,17,18
 224 250 224 250 216 250 c 0,19,20
 210 250 210 250 188 241 c 0,21,22
 162 228 162 228 152 221 c 1,23,-1
 138 244 l 1,24,25
 188 286 188 286 235 308 c 0,26,27
 285 333 285 333 312 333 c 0,28,29
 352 333 352 333 331 250 c 2,30,-1
 295 114 l 2,31,32
 286 81 286 81 298 81 c 0,33,34
 321 81 321 81 358 112 c 1,35,-1
 374 91 l 1,36,37
 329 46 329 46 284 24 c 0,38,39
 237 0 237 0 213 0 c 1,40,-1
 213 0 l 1,14,15
EndSplineSet
Validated: 37
EndChar

StartChar: uniE018
Encoding: 57368 57368 28
Width: 512
GlyphClass: 2
Flags: W
LayerCount: 2
Fore
SplineSet
457 302 m 2,0,-1
 457 247 l 2,1,2
 457 237 457 237 449 227 c 0,3,4
 441 219 441 219 430 219 c 2,5,-1
 311 219 l 1,6,-1
 311 101 l 2,7,8
 311 89 311 89 303 81 c 128,-1,9
 295 73 295 73 283 73 c 2,10,-1
 229 73 l 2,11,12
 217 73 217 73 209 81 c 128,-1,13
 201 89 201 89 201 101 c 2,14,-1
 201 219 l 1,15,-1
 82 219 l 2,16,17
 71 219 71 219 63 227 c 0,18,19
 55 237 55 237 55 247 c 2,20,-1
 55 302 l 2,21,22
 55 313 55 313 63 321 c 128,-1,23
 71 329 71 329 82 329 c 2,24,-1
 201 329 l 1,25,-1
 201 448 l 2,26,27
 201 459 201 459 209 467 c 0,28,29
 216 475 216 475 229 475 c 2,30,-1
 283 475 l 2,31,32
 296 475 296 475 303 467 c 0,33,34
 311 459 311 459 311 448 c 2,35,-1
 311 329 l 1,36,-1
 430 329 l 2,37,38
 441 329 441 329 449 321 c 128,-1,39
 457 313 457 313 457 302 c 2,0,-1
EndSplineSet
Validated: 1
EndChar

StartChar: uniE023
Encoding: 57379 57379 29
Width: 512
GlyphClass: 2
Flags: W
LayerCount: 2
Fore
SplineSet
256 512 m 128,-1,1
 150 512 150 512 75 437 c 128,-1,2
 0 362 0 362 0 256 c 128,-1,3
 0 150 0 150 75 75 c 128,-1,4
 150 0 150 0 256 0 c 128,-1,5
 362 0 362 0 437 75 c 128,-1,6
 512 150 512 150 512 256 c 128,-1,7
 512 362 512 362 437 437 c 128,-1,0
 362 512 362 512 256 512 c 128,-1,1
256 43 m 128,-1,9
 168 43 168 43 105.5 105.5 c 128,-1,10
 43 168 43 168 43 256 c 128,-1,11
 43 344 43 344 105.5 406.5 c 128,-1,12
 168 469 168 469 256 469 c 128,-1,13
 344 469 344 469 406.5 406.5 c 128,-1,14
 469 344 469 344 469 256 c 128,-1,15
 469 168 469 168 406.5 105.5 c 128,-1,8
 344 43 344 43 256 43 c 128,-1,9
351 403 m 0,16,17
 332 411 332 411 322 394 c 2,18,-1
 250 249 l 1,19,-1
 207 292 l 2,20,21
 201 299 201 299 192 299 c 128,-1,22
 183 299 183 299 177 292 c 0,23,24
 163 278 163 278 177 262 c 2,25,-1
 241 198 l 2,26,27
 247 192 247 192 256 192 c 2,28,-1
 259 192 l 2,29,30
 270 194 270 194 275 204 c 2,31,-1
 360 374 l 2,32,33
 364 382 364 382 361.5 390.5 c 128,-1,34
 359 399 359 399 351 403 c 0,16,17
235 107 m 1,35,-1
 277 107 l 1,36,-1
 277 85 l 1,37,-1
 235 85 l 1,38,-1
 235 107 l 1,35,-1
235 448 m 1,39,-1
 277 448 l 1,40,-1
 277 427 l 1,41,-1
 235 427 l 1,42,-1
 235 448 l 1,39,-1
64 277 m 1,43,-1
 107 277 l 1,44,-1
 107 256 l 1,45,-1
 64 256 l 1,46,-1
 64 277 l 1,43,-1
405 277 m 1,47,-1
 448 277 l 1,48,-1
 448 256 l 1,49,-1
 405 256 l 1,50,-1
 405 277 l 1,47,-1
EndSplineSet
Validated: 41
EndChar

StartChar: uniE022
Encoding: 57378 57378 30
Width: 512
GlyphClass: 2
Flags: W
LayerCount: 2
Fore
SplineSet
55 37 m 1,0,-1
 137 37 l 1,1,-1
 137 119 l 1,2,-1
 55 119 l 1,3,-1
 55 37 l 1,0,-1
155 37 m 1,4,-1
 247 37 l 1,5,-1
 247 119 l 1,6,-1
 155 119 l 1,7,-1
 155 37 l 1,4,-1
55 137 m 1,8,-1
 137 137 l 1,9,-1
 137 229 l 1,10,-1
 55 229 l 1,11,-1
 55 137 l 1,8,-1
155 137 m 1,12,-1
 247 137 l 1,13,-1
 247 229 l 1,14,-1
 155 229 l 1,15,-1
 155 137 l 1,12,-1
55 247 m 1,16,-1
 137 247 l 1,17,-1
 137 329 l 1,18,-1
 55 329 l 1,19,-1
 55 247 l 1,16,-1
265 37 m 1,20,-1
 357 37 l 1,21,-1
 357 119 l 1,22,-1
 265 119 l 1,23,-1
 265 37 l 1,20,-1
155 247 m 1,24,-1
 247 247 l 1,25,-1
 247 329 l 1,26,-1
 155 329 l 1,27,-1
 155 247 l 1,24,-1
375 37 m 1,28,-1
 457 37 l 1,29,-1
 457 119 l 1,30,-1
 375 119 l 1,31,-1
 375 37 l 1,28,-1
265 137 m 1,32,-1
 357 137 l 1,33,-1
 357 229 l 1,34,-1
 265 229 l 1,35,-1
 265 137 l 1,32,-1
165 384 m 2,36,-1
 165 466 l 2,37,38
 165 470 165 470 162 473 c 0,39,40
 160 475 160 475 155 475 c 2,41,-1
 137 475 l 2,42,43
 133 475 133 475 131 473 c 0,44,45
 128 470 128 470 128 466 c 2,46,-1
 128 384 l 2,47,48
 128 380 128 380 131 378 c 0,49,50
 134 375 134 375 137 375 c 2,51,-1
 155 375 l 2,52,53
 159 375 159 375 162 378 c 0,54,55
 165 380 165 380 165 384 c 2,36,-1
375 137 m 1,56,-1
 457 137 l 1,57,-1
 457 229 l 1,58,-1
 375 229 l 1,59,-1
 375 137 l 1,56,-1
265 247 m 1,60,-1
 357 247 l 1,61,-1
 357 329 l 1,62,-1
 265 329 l 1,63,-1
 265 247 l 1,60,-1
375 247 m 1,64,-1
 457 247 l 1,65,-1
 457 329 l 1,66,-1
 375 329 l 1,67,-1
 375 247 l 1,64,-1
384 384 m 2,68,-1
 384 466 l 2,69,70
 384 470 384 470 381 473 c 0,71,72
 379 475 379 475 375 475 c 2,73,-1
 357 475 l 2,74,75
 352 475 352 475 350 473 c 0,76,77
 347 470 347 470 347 466 c 2,78,-1
 347 384 l 2,79,80
 347 380 347 380 350 378 c 0,81,82
 353 375 353 375 357 375 c 2,83,-1
 375 375 l 2,84,85
 378 375 378 375 381 378 c 0,86,87
 384 380 384 380 384 384 c 2,68,-1
494 402 m 2,88,-1
 494 37 l 2,89,90
 494 22 494 22 483 11 c 128,-1,91
 472 0 472 0 457 0 c 2,92,-1
 55 0 l 2,93,94
 40 0 40 0 29 11 c 128,-1,95
 18 22 18 22 18 37 c 2,96,-1
 18 402 l 2,97,98
 18 417 18 417 29 428 c 128,-1,99
 40 439 40 439 55 439 c 2,100,-1
 91 439 l 1,101,-1
 91 466 l 2,102,103
 91 485 91 485 105 499 c 0,104,105
 118 512 118 512 137 512 c 2,106,-1
 155 512 l 2,107,108
 175 512 175 512 188 499 c 128,-1,109
 201 486 201 486 201 466 c 2,110,-1
 201 439 l 1,111,-1
 311 439 l 1,112,-1
 311 466 l 2,113,114
 311 486 311 486 324 499 c 128,-1,115
 337 512 337 512 357 512 c 2,116,-1
 375 512 l 2,117,118
 394 512 394 512 407 499 c 0,119,120
 421 485 421 485 421 466 c 2,121,-1
 421 439 l 1,122,-1
 457 439 l 2,123,124
 472 439 472 439 483 428 c 128,-1,125
 494 417 494 417 494 402 c 2,88,-1
EndSplineSet
Validated: 1
EndChar

StartChar: uniE024
Encoding: 57380 57380 31
Width: 512
GlyphClass: 2
Flags: W
LayerCount: 2
Fore
SplineSet
55 37 m 1,0,-1
 457 37 l 1,1,-1
 457 329 l 1,2,-1
 55 329 l 1,3,-1
 55 37 l 1,0,-1
165 384 m 2,4,-1
 165 466 l 2,5,6
 165 470 165 470 162 473 c 0,7,8
 160 475 160 475 155 475 c 2,9,-1
 137 475 l 2,10,11
 132 475 132 475 131 473 c 0,12,13
 128 470 128 470 128 466 c 2,14,-1
 128 384 l 2,15,16
 128 380 128 380 131 377 c 0,17,18
 133 375 133 375 137 375 c 2,19,-1
 155 375 l 2,20,21
 158 375 158 375 162 377 c 0,22,23
 165 380 165 380 165 384 c 2,4,-1
384 384 m 2,24,-1
 384 466 l 2,25,26
 384 470 384 470 381 473 c 0,27,28
 380 475 380 475 375 475 c 2,29,-1
 357 475 l 2,30,31
 352 475 352 475 350 473 c 0,32,33
 347 470 347 470 347 466 c 2,34,-1
 347 384 l 2,35,36
 347 380 347 380 350 377 c 0,37,38
 354 375 354 375 357 375 c 2,39,-1
 375 375 l 2,40,41
 379 375 379 375 381 377 c 0,42,43
 384 380 384 380 384 384 c 2,24,-1
494 402 m 2,44,-1
 494 37 l 2,45,46
 494 22 494 22 483 11 c 128,-1,47
 472 0 472 0 457 0 c 2,48,-1
 55 0 l 2,49,50
 40 0 40 0 29 11 c 128,-1,51
 18 22 18 22 18 37 c 2,52,-1
 18 402 l 2,53,54
 18 417 18 417 29 428 c 128,-1,55
 40 439 40 439 55 439 c 2,56,-1
 91 439 l 1,57,-1
 91 466 l 2,58,59
 91 485 91 485 105 499 c 0,60,61
 118 512 118 512 137 512 c 2,62,-1
 155 512 l 2,63,64
 175 512 175 512 188 499 c 128,-1,65
 201 486 201 486 201 466 c 2,66,-1
 201 439 l 1,67,-1
 311 439 l 1,68,-1
 311 466 l 2,69,70
 311 486 311 486 324 499 c 128,-1,71
 337 512 337 512 357 512 c 2,72,-1
 375 512 l 2,73,74
 394 512 394 512 407 499 c 0,75,76
 421 485 421 485 421 466 c 2,77,-1
 421 439 l 1,78,-1
 457 439 l 2,79,80
 472 439 472 439 483 428 c 128,-1,81
 494 417 494 417 494 402 c 2,44,-1
EndSplineSet
Validated: 1
EndChar

StartChar: uniE025
Encoding: 65538 -1 32
Width: 512
GlyphClass: 2
Flags: W
LayerCount: 2
Fore
SplineSet
407 461 m 1,0,-1
 434 461 l 1,1,-1
 434 512 l 1,2,-1
 64 512 l 1,3,-1
 64 461 l 1,4,-1
 96 461 l 1,5,6
 102 313 102 313 197 281 c 1,7,-1
 197 228 l 1,8,9
 104 196 104 196 96 51 c 1,10,-1
 64 51 l 1,11,-1
 64 0 l 1,12,-1
 434 0 l 1,13,-1
 434 51 l 1,14,-1
 407 51 l 1,15,16
 399 196 399 196 306 228 c 1,17,-1
 306 281 l 1,18,19
 401 313 401 313 407 461 c 1,0,-1
291 206 m 1,20,21
 374 185 374 185 382 51 c 1,22,-1
 356 51 l 1,23,-1
 311 103 l 1,24,-1
 254 171 l 1,25,-1
 196 103 l 1,26,-1
 151 51 l 1,27,-1
 122 51 l 1,28,29
 128 185 128 185 212 206 c 1,30,-1
 222 208 l 1,31,-1
 222 301 l 1,32,-1
 212 303 l 2,33,34
 127 324 127 324 121 461 c 1,35,-1
 382 461 l 1,36,37
 376 324 376 324 291 303 c 2,38,-1
 281 301 l 1,39,-1
 281 208 l 1,40,-1
 291 206 l 1,20,21
308 357 m 1,41,-1
 203 357 l 1,42,-1
 229 326 l 1,43,-1
 256 296 l 1,44,-1
 282 326 l 1,45,-1
 308 357 l 1,41,-1
EndSplineSet
Validated: 2097161
EndChar

StartChar: uniE025
Encoding: 57381 57381 33
Width: 512
GlyphClass: 2
Flags: W
LayerCount: 2
Fore
SplineSet
399 395 m 2,0,1
 399 373 399 373 375 346 c 0,2,3
 342 311 342 311 325 295 c 0,4,5
 300 271 300 271 300 256 c 128,-1,6
 300 241 300 241 325 217 c 128,-1,7
 350 193 350 193 375 167 c 0,8,9
 399 142 399 142 399 118 c 2,10,-1
 399 57 l 2,11,12
 399 39 399 39 355 20 c 0,13,14
 310 0 310 0 256 0 c 128,-1,15
 202 0 202 0 157 20 c 0,16,17
 113 39 113 39 113 57 c 2,18,-1
 113 118 l 2,19,20
 113 142 113 142 137 167 c 0,21,22
 162 193 162 193 187 217 c 128,-1,23
 212 241 212 241 212 256 c 128,-1,24
 212 271 212 271 187 295 c 0,25,26
 170 311 170 311 137 346 c 0,27,28
 113 373 113 373 113 395 c 2,29,-1
 113 456 l 2,30,31
 113 473 113 473 157 492 c 0,32,33
 203 512 203 512 256 512 c 128,-1,34
 309 512 309 512 355 492 c 0,35,36
 399 473 399 473 399 456 c 2,37,-1
 399 395 l 2,0,1
153 453 m 1,38,-1
 143 445 l 2,39,40
 141 442 141 442 145 438 c 0,41,42
 194 412 194 412 256 412 c 0,43,44
 325 412 325 412 369 437 c 0,45,46
 375 443 375 443 360 453 c 0,47,48
 312 480 312 480 257 480 c 0,49,50
 195 480 195 480 153 453 c 1,38,-1
269 256 m 1,51,52
 269 263 269 263 271 273 c 0,53,54
 275 283 275 283 281 290 c 0,55,56
 283 293 283 293 286.5 297.5 c 128,-1,57
 290 302 290 302 291 303 c 0,58,59
 298 310 298 310 307 318 c 2,60,-1
 322 333 l 2,61,62
 369 380 369 380 369 395 c 2,63,-1
 370 421 l 1,64,65
 320 393 320 393 256 393 c 128,-1,66
 192 393 192 393 142 421 c 1,67,-1
 144 395 l 2,68,69
 144 381 144 381 190 333 c 0,70,71
 192 332 192 332 195.5 328 c 128,-1,72
 199 324 199 324 202 322 c 0,73,74
 211 313 211 313 214 311 c 2,75,-1
 223 301 l 2,76,77
 226 297 226 297 232 290 c 0,78,79
 241 280 241 280 238 280 c 256,80,81
 235 280 235 280 242.5 268 c 128,-1,82
 250 256 250 256 244 256 c 1,83,84
 244 249 244 249 243 246 c 0,85,86
 243 242 243 242 240 237 c 0,87,88
 239 236 239 236 238.5 234.5 c 128,-1,89
 238 233 238 233 237 231.5 c 128,-1,90
 236 230 236 230 236 229 c 0,91,92
 235 227 235 227 230 220 c 2,93,-1
 224 212 l 2,94,95
 222 210 222 210 217 204 c 2,96,-1
 208 197 l 1,97,-1
 199 188 l 1,98,-1
 190 180 l 2,99,100
 144 134 144 134 144 118 c 2,101,-1
 144 84 l 2,102,103
 145 84 145 84 149 85.5 c 128,-1,104
 153 87 153 87 161.5 90 c 128,-1,105
 170 93 170 93 178 96 c 0,106,107
 207 105 207 105 225 118 c 0,108,109
 243 130 243 130 243 147 c 0,110,111
 243 163 243 163 256 163 c 128,-1,112
 269 163 269 163 269 147 c 0,113,114
 269 130 269 130 286 118 c 0,115,116
 304 105 304 105 334 96 c 0,117,118
 367 85 367 85 369 84 c 2,119,-1
 369 118 l 2,120,121
 369 133 369 133 322 180 c 0,122,123
 317 185 317 185 311 190 c 2,124,-1
 300 201 l 1,125,-1
 290 211 l 2,126,127
 288 213 288 213 285 216.5 c 128,-1,128
 282 220 282 220 281 222 c 0,129,130
 277 228 277 228 275 232 c 0,131,132
 274 234 274 234 272.5 238 c 128,-1,133
 271 242 271 242 270 244 c 0,134,135
 270 246 270 246 269.5 250 c 128,-1,136
 269 254 269 254 269 256 c 1,137,-1
 269 256 l 1,51,52
EndSplineSet
Validated: 2097189
EndChar

StartChar: uniE021
Encoding: 57377 57377 34
Width: 512
GlyphClass: 2
Flags: W
LayerCount: 2
Fore
SplineSet
223.373046875 -24.037109375 m 0,0,1
 182.348502054 -18.6713752104 182.348502054 -18.6713752104 144.568359375 0.30859375 c 0,2,3
 110.210279008 17.5689331642 110.210279008 17.5689331642 80.2282658546 46.9700959293 c 128,-1,4
 50.2462527008 76.3712586943 50.2462527008 76.3712586943 33.0498046875 109.666992188 c 0,5,6
 18.9012939347 137.060225552 18.9012939347 137.060225552 11.0390625 168.252929688 c 0,7,8
 6.34693883474 186.870065521 6.34693883474 186.870065521 6.3056640625 223.944335938 c 128,-1,9
 6.26697660529 261.030727614 6.26697660529 261.030727614 8.595703125 271.61328125 c 0,10,11
 33.2780995231 383.761685481 33.2780995231 383.761685481 129.180664062 442.009765625 c 0,12,13
 144.38258239 451.243090373 144.38258239 451.243090373 145.96445809 450.277536193 c 0,14,15
 151.262772799 447.043521083 151.262772799 447.043521083 151.794752311 348.80736034 c 0,16,17
 151.923559249 325.021671645 151.923559249 325.021671645 152.033203125 309.572265625 c 0,18,19
 153.029067991 169.213764981 153.029067991 169.213764981 155.9765625 151.55859375 c 0,20,21
 172.828975429 50.6269095227 172.828975429 50.6269095227 226.954101562 -7.7548828125 c 0,22,23
 242.634104425 -25.5826620136 242.634104425 -25.5826620136 236.118164062 -25.65234375 c 0,24,25
 233.993565046 -25.4262462196 233.993565046 -25.4262462196 223.373046875 -24.037109375 c 0,0,1
369.078125 41.4287109375 m 0,26,27
 323.933238347 46.926125269 323.933238347 46.926125269 299.446289062 96.6435546875 c 0,28,29
 279.263356911 137.622617999 279.263356911 137.622617999 275.348632812 216 c 0,30,31
 274.102811958 240.937656837 274.102811958 240.937656837 274.000610352 353.452270508 c 128,-1,32
 273.898408745 465.966884178 273.898408745 465.966884178 275.1171875 470.67578125 c 0,33,34
 276.663839115 476.650903896 276.663839115 476.650903896 306.40234375 470.334960938 c 0,35,36
 349.678196353 461.142191372 349.678196353 461.142191372 387.82852534 437.327870403 c 128,-1,37
 425.978854326 413.513549435 425.978854326 413.513549435 453.608323619 378.752207722 c 128,-1,38
 481.237792912 343.990866009 481.237792912 343.990866009 494.12109375 303.174804688 c 0,39,40
 505.788181868 266.212817981 505.788181868 266.212817981 505.693359375 222.178710938 c 0,41,42
 505.563452248 162.286276389 505.563452248 162.286276389 481.610351562 114.482421875 c 0,43,44
 462.20254435 75.7495715153 462.20254435 75.7495715153 432.58886241 56.5248199964 c 128,-1,45
 402.975180471 37.3000684775 402.975180471 37.3000684775 369.078125 41.4287109375 c 0,26,27
207.533203125 -17.9599609375 m 0,46,47
 97.7796783684 6.27650309212 97.7796783684 6.27650309212 40.4130859375 101.70703125 c 0,48,49
 -1.63438306396 171.655215754 -1.63438306396 171.655215754 8.96484375 256.192382812 c 0,50,51
 16.1835917611 313.761458748 16.1835917611 313.761458748 49.3590007886 363.269519311 c 128,-1,52
 82.5344098161 412.777579874 82.5344098161 412.777579874 133.391601562 441.875976562 c 0,53,54
 146.462496004 449.354190008 146.462496004 449.354190008 148.467773438 448.116210938 c 128,-1,55
 150.472901817 446.876267131 150.472901817 446.876267131 149.872070312 313.341796875 c 128,-1,56
 149.270647795 179.812110758 149.270647795 179.812110758 152.513671875 156.854492188 c 0,57,58
 163.271944401 80.7018608822 163.271944401 80.7018608822 193.624023438 30.4248046875 c 0,59,60
 200.120174013 19.6650288434 200.120174013 19.6650288434 214.812211207 1.3081003592 c 128,-1,61
 229.504248401 -17.048828125 229.504248401 -17.048828125 231.620117188 -17.048828125 c 0,62,63
 233.1328125 -17.048828125 233.1328125 -17.048828125 233.1328125 -18.814453125 c 0,64,65
 233.1328125 -19.3211212325 233.1328125 -19.3211212325 232.394684056 -19.6744539936 c 128,-1,66
 231.656555612 -20.0277867548 231.656555612 -20.0277867548 230.299370016 -20.1942624103 c 128,-1,67
 228.94218442 -20.3607380659 228.94218442 -20.3607380659 227.108195354 -20.3826070093 c 128,-1,68
 225.274206287 -20.4044759527 225.274206287 -20.4044759527 222.996914659 -20.2453625379 c 128,-1,69
 220.719623031 -20.086249123 220.719623031 -20.086249123 218.232557599 -19.7914478894 c 128,-1,70
 215.745492166 -19.4966466558 215.745492166 -19.4966466558 212.990878763 -19.0267378112 c 128,-1,71
 210.236265359 -18.5568289666 210.236265359 -18.5568289666 207.533203125 -17.9599609375 c 0,46,47
356.298828125 46.4072265625 m 0,72,73
 306.569026626 62.3042231634 306.569026626 62.3042231634 288.076171875 134.786132812 c 0,74,75
 280.855308764 163.08951389 280.855308764 163.08951389 279.50480282 189.64455837 c 128,-1,76
 278.154296875 216.19960285 278.154296875 216.19960285 278.154296875 329.875 c 2,77,-1
 278.154296875 469.3515625 l 1,78,-1
 284.065429688 469.916992188 l 2,79,80
 298.638384452 471.313182149 298.638384452 471.313182149 334.360351562 459.349609375 c 0,81,82
 410.786975545 433.756042727 410.786975545 433.756042727 459.969726562 365.185546875 c 0,83,84
 485.575529919 329.485803941 485.575529919 329.485803941 497.545898438 281.392578125 c 0,85,86
 502.177144479 262.782952503 502.177144479 262.782952503 502.15625 222.178710938 c 128,-1,87
 502.136334578 181.571165291 502.136334578 181.571165291 496.622070312 160.760742188 c 0,88,89
 486.823008156 123.777870185 486.823008156 123.777870185 466.647234013 94.4046881498 c 128,-1,90
 446.471459869 65.0315061148 446.471459869 65.0315061148 422.895507812 53.4248046875 c 0,91,92
 388.032778495 36.2626652718 388.032778495 36.2626652718 356.298828125 46.4072265625 c 0,72,73
358.485351562 45.8095703125 m 0,93,94
 297.395889049 62.1531856363 297.395889049 62.1531856363 281.25390625 168.258789062 c 0,95,96
 278.154206977 188.631264593 278.154206977 188.631264593 278.400390625 293.682617188 c 128,-1,97
 278.646448988 398.730075957 278.646448988 398.730075957 280.654296875 403.826171875 c 0,98,99
 282.104496269 407.505137308 282.104496269 407.505137308 283.621337891 408.06652832 c 128,-1,100
 285.138179512 408.627919333 285.138179512 408.627919333 291.5703125 407.866210938 c 0,101,102
 301.587619778 406.679791275 301.587619778 406.679791275 320.526367188 400.643554688 c 0,103,104
 329.357823079 397.829993519 329.357823079 397.829993519 337.38671875 397.838867188 c 128,-1,105
 345.4190357 397.847742676 345.4190357 397.847742676 347.323242188 395.9453125 c 0,106,107
 350.011667256 393.25548575 350.011667256 393.25548575 369.9609375 389.020507812 c 0,108,109
 377.030715134 387.518380053 377.030715134 387.518380053 384.084960938 385.517578125 c 128,-1,110
 391.144607854 383.515244275 391.144607854 383.515244275 402.623046875 381.190429688 c 128,-1,111
 414.100273992 378.867636392 414.100273992 378.867636392 419.395507812 377.060546875 c 0,112,113
 441.253291377 369.599609375 441.253291377 369.599609375 447.341796875 369.599609375 c 0,114,115
 451.864091044 369.599609375 451.864091044 369.599609375 459.91796875 359.7109375 c 0,116,117
 481.655408453 333.026745287 481.655408453 333.026745287 493.155345784 292.779715037 c 128,-1,118
 504.655283115 252.532684787 504.655283115 252.532684787 502.727539062 209.888671875 c 0,119,120
 501.112445899 174.167636272 501.112445899 174.167636272 490.822265625 143.220703125 c 0,121,122
 472.894083018 89.3013899793 472.894083018 89.3013899793 435.977116125 62.1274895048 c 128,-1,123
 399.060149233 34.9535890303 399.060149233 34.9535890303 358.485351562 45.8095703125 c 0,93,94
64.20703125 72.55078125 m 0,124,125
 48.2283020488 89.5477833014 48.2283020488 89.5477833014 35.7978515625 111.833984375 c 0,126,127
 19.3530087332 141.314292963 19.3530087332 141.314292963 12.0065528176 180.513838866 c 128,-1,128
 4.66009690196 219.713384769 4.66009690196 219.713384769 8.9873046875 254.887695312 c 0,129,130
 19.8626254072 343.275161653 19.8626254072 343.275161653 83.4931640625 404.243164062 c 0,131,132
 99.7313933514 419.802450654 99.7313933514 419.802450654 122.353945282 435.037964246 c 128,-1,133
 144.976497212 450.273477838 144.976497212 450.273477838 148.556640625 448.061523438 c 0,134,135
 150.598552574 446.79816353 150.598552574 446.79816353 149.326171875 321.247070312 c 0,136,137
 148.329355151 222.880550697 148.329355151 222.880550697 149.269042969 193.614013672 c 128,-1,138
 150.208730787 164.347476647 150.208730787 164.347476647 155.53125 127.989257812 c 0,139,140
 158.859954022 105.251953125 158.859954022 105.251953125 158.591430664 102.363769531 c 128,-1,141
 158.322907306 99.4755859375 158.322907306 99.4755859375 152.880859375 99.4755859375 c 0,142,143
 146.780499249 99.4755859375 146.780499249 99.4755859375 140.275390625 95.0615234375 c 0,144,145
 131.294536185 88.9675899599 131.294536185 88.9675899599 128.356445312 91.0888671875 c 0,146,147
 127.744007064 91.5308878365 127.744007064 91.5308878365 124.825195312 89.107421875 c 128,-1,148
 121.905273438 86.6830341868 121.905273438 86.6830341868 121.905273438 87.927734375 c 128,-1,149
 121.905273438 89.1704884504 121.905273438 89.1704884504 115.958984375 85.4951171875 c 128,-1,150
 110.01361196 81.8203125 110.01361196 81.8203125 105.946289062 81.8203125 c 128,-1,151
 101.880002805 81.8203125 101.880002805 81.8203125 99.0927734375 79.421875 c 0,152,153
 91.6205475263 72.9921875 91.6205475263 72.9921875 80.369140625 72.9921875 c 0,154,155
 76.4345552482 72.9921875 76.4345552482 72.9921875 74.236328125 70.3447265625 c 0,156,157
 70.506990576 65.8497009182 70.506990576 65.8497009182 64.20703125 72.55078125 c 0,124,125
364.831054688 44.7431640625 m 0,158,159
 347.252721098 47.8940803585 347.252721098 47.8940803585 330.747883814 61.1558927399 c 128,-1,160
 314.243046531 74.4177051213 314.243046531 74.4177051213 304.337890625 93.3505859375 c 0,161,162
 286.050350598 128.304703436 286.050350598 128.304703436 280.836914062 184.220703125 c 0,163,164
 278.693149249 207.209972265 278.693149249 207.209972265 279.25012207 271.026000977 c 128,-1,165
 279.807094891 334.842029688 279.807094891 334.842029688 282.158203125 335.625 c 128,-1,166
 284.397949219 336.371582031 284.397949219 336.371582031 286.77734375 338.750976562 c 128,-1,167
 289.157487142 341.131119954 289.157487142 341.131119954 292.7265625 338.631835938 c 128,-1,168
 296.29555461 336.131765843 296.29555461 336.131765843 306.645507812 334.96875 c 128,-1,169
 316.996634875 333.805602251 316.996634875 333.805602251 319.811523438 332.366210938 c 0,170,171
 323.056658793 330.707187366 323.056658793 330.707187366 338.248046875 327.552734375 c 0,172,173
 345.372674646 326.074205493 345.372674646 326.074205493 355.12109375 321.462890625 c 128,-1,174
 364.866407243 316.852433997 364.866407243 316.852433997 370.944335938 318.143554688 c 0,175,176
 377.956450074 319.632637237 377.956450074 319.632637237 385.850585938 317.69140625 c 0,177,178
 398.536235042 314.0773875 398.536235042 314.0773875 398.204101562 311.330078125 c 1,179,-1
 405.696289062 309.571289062 l 2,180,181
 414.277164918 309.571289062 414.277164918 309.571289062 416.251953125 307.594726562 c 0,182,183
 420.310044308 303.53663538 420.310044308 303.53663538 437.93359375 301.75 c 0,184,185
 442.341507493 301.303000296 442.341507493 301.303000296 445.877929688 300.1953125 c 128,-1,186
 449.405242439 299.088704578 449.405242439 299.088704578 456.153320312 298.6640625 c 128,-1,187
 462.899529238 298.239649777 462.899529238 298.239649777 463.657226562 297.01171875 c 128,-1,188
 464.41698737 295.783320435 464.41698737 295.783320435 471.267578125 296.703125 c 128,-1,189
 478.119745336 297.621193145 478.119745336 297.621193145 483.625976562 291.859375 c 128,-1,190
 489.1328125 286.096902578 489.1328125 286.096902578 489.1328125 283.654296875 c 128,-1,191
 489.1328125 281.212986658 489.1328125 281.212986658 491.696289062 280.229492188 c 0,192,193
 498.304962144 277.693103527 498.304962144 277.693103527 500.792602539 240.997558594 c 128,-1,194
 503.280242935 204.30201366 503.280242935 204.30201366 498.692382812 177.02734375 c 0,195,196
 491.770942962 135.883229083 491.770942962 135.883229083 470.802849345 101.786288975 c 128,-1,197
 449.834755729 67.6893488677 449.834755729 67.6893488677 423.1015625 54.107421875 c 0,198,199
 394.28225758 39.4649297869 394.28225758 39.4649297869 364.831054688 44.7431640625 c 0,158,159
35.017578125 118.455078125 m 0,200,201
 23.2449490561 136.261388129 23.2449490561 136.261388129 14.0263671875 173.626953125 c 0,202,203
 9.8896518363 190.396338217 9.8896518363 190.396338217 9.841796875 225.709960938 c 0,204,205
 9.78245695936 270.485350747 9.78245695936 270.485350747 19.8046875 301.626953125 c 0,206,207
 48.2200519577 389.924026122 48.2200519577 389.924026122 129.642578125 438.860351562 c 0,208,209
 143.655953099 447.282226562 143.655953099 447.282226562 146.150390625 447.282226562 c 128,-1,210
 148.644299386 447.282226562 148.644299386 447.282226562 148.188476562 303.833984375 c 0,211,212
 147.850808849 197.58145456 147.850808849 197.58145456 147.32571136 178.525630439 c 128,-1,213
 146.800613872 159.469806317 146.800613872 159.469806317 144.137695312 156.854492188 c 0,214,215
 136.434573343 149.28770866 136.434573343 149.28770866 120.412109375 148.98828125 c 0,216,217
 111.21945917 148.814597552 111.21945917 148.814597552 104.25 141.84765625 c 0,218,219
 97.6958529161 135.293509166 97.6958529161 135.293509166 79.9140625 133.196289062 c 0,220,221
 69.2975080678 131.945404331 69.2975080678 131.945404331 63.0556640625 127.185546875 c 128,-1,222
 56.817743922 122.426757812 56.817743922 122.426757812 52.677734375 122.426757812 c 0,223,224
 50.7245900611 122.426757812 50.7245900611 122.426757812 48.2888949111 120.956845998 c 128,-1,225
 45.8531997611 119.486934184 45.8531997611 119.486934184 44.1551155056 117.37844046 c 128,-1,226
 42.45703125 115.269946736 42.45703125 115.269946736 42.45703125 113.579101562 c 0,227,228
 42.45703125 107.203915368 42.45703125 107.203915368 35.017578125 118.455078125 c 0,200,201
354.739257812 48.7080078125 m 0,229,230
 300.746163049 67.6345910332 300.746163049 67.6345910332 284.939453125 156.828125 c 0,231,232
 282.439767687 170.931243311 282.439767687 170.931243311 281.348632812 212.084350586 c 128,-1,233
 280.257497938 253.237457861 280.257497938 253.237457861 282.328125 255.307617188 c 128,-1,234
 284.333007812 257.3125 284.333007812 257.3125 284.333007812 255.004882812 c 128,-1,235
 284.333007812 252.6973616 284.333007812 252.6973616 286.80859375 253.647460938 c 128,-1,236
 289.286023517 254.597586332 289.286023517 254.597586332 290.309570312 253.572265625 c 128,-1,237
 291.334953537 252.546882401 291.334953537 252.546882401 297.102539062 252.166992188 c 128,-1,238
 302.872123736 251.786970298 302.872123736 251.786970298 312.581054688 248.77734375 c 0,239,240
 333.198316396 242.38731424 333.198316396 242.38731424 346.125976562 240.64453125 c 0,241,242
 360.078467188 238.764012068 360.078467188 238.764012068 376.139648438 233.587890625 c 0,243,244
 380.550420375 232.166720745 380.550420375 232.166720745 390.255859375 231.026367188 c 128,-1,245
 399.958299545 229.886365982 399.958299545 229.886365982 402.926757812 227.200195312 c 0,246,247
 406.787348353 223.7062823 406.787348353 223.7062823 426.45703125 219.530273438 c 0,248,249
 433.521788327 218.029589745 433.521788327 218.029589745 440.581054688 215.803710938 c 128,-1,250
 447.643737037 213.575539407 447.643737037 213.575539407 460.23828125 213.891601562 c 128,-1,251
 472.832467251 214.208635823 472.832467251 214.208635823 475.01953125 211.572265625 c 128,-1,252
 477.206725913 208.937690236 477.206725913 208.937690236 480.962890625 208.880859375 c 128,-1,253
 484.718194666 208.825843106 484.718194666 208.825843106 488.146484375 206.232421875 c 128,-1,254
 491.572626819 203.640625 491.572626819 203.640625 495.0078125 203.640625 c 128,-1,255
 498.442246538 203.640625 498.442246538 203.640625 497.469726562 187.309570312 c 0,256,257
 495.274641926 150.423798756 495.274641926 150.423798756 477.036151533 114.835247553 c 128,-1,258
 458.797661139 79.2466963498 458.797661139 79.2466963498 433.116210938 61.73828125 c 0,259,260
 410.77229566 46.503913272 410.77229566 46.503913272 383.202148438 45.3251953125 c 0,261,262
 366.428941527 44.6093571233 366.428941527 44.6093571233 354.739257812 48.7080078125 c 0,229,230
22.154296875 178.923828125 m 0,263,264
 21.0618830169 180.689453125 21.0618830169 180.689453125 17.94140625 180.689453125 c 128,-1,265
 14.8953190784 180.689453125 14.8953190784 180.689453125 12.5496238426 192.130642361 c 128,-1,266
 10.2039286068 203.571831597 10.2039286068 203.571831597 9.69256365741 219.155164931 c 128,-1,267
 9.18119870802 234.738498264 9.18119870802 234.738498264 10.52734375 250.814453125 c 0,268,269
 21.0384431232 354.736373976 21.0384431232 354.736373976 101.61328125 418.127929688 c 0,270,271
 114.714112161 428.434414746 114.714112161 428.434414746 130.007864288 437.825329909 c 128,-1,272
 145.301616414 447.216245071 145.301616414 447.216245071 147.137695312 446.081054688 c 0,273,274
 148.601021031 445.176737232 148.601021031 445.176737232 147.832885742 349.732543945 c 128,-1,275
 147.064750453 254.288350659 147.064750453 254.288350659 145.471679688 239.046875 c 2,276,-1
 144.33984375 228.22265625 l 1,277,-1
 138.450195312 229.158203125 l 2,278,279
 132.561467523 230.09475204 132.561467523 230.09475204 129.678710938 225.6953125 c 128,-1,280
 126.795479123 221.295898438 126.795479123 221.295898438 123.706054688 221.295898438 c 128,-1,281
 120.616913532 221.295898438 120.616913532 221.295898438 116.126953125 217.764648438 c 128,-1,282
 111.637752295 214.234375 111.637752295 214.234375 108.249023438 214.234375 c 128,-1,283
 104.858194103 214.234375 104.858194103 214.234375 93.7939453125 209.737304688 c 128,-1,284
 82.7285740084 205.241553702 82.7285740084 205.241553702 79.806640625 205.735351562 c 128,-1,285
 76.8863740237 206.228567914 76.8863740237 206.228567914 72.7177734375 203.30859375 c 128,-1,286
 68.550213091 200.387572544 68.550213091 200.387572544 65.369140625 201 c 128,-1,287
 62.187819192 201.612475387 62.187819192 201.612475387 59.111328125 198.212890625 c 128,-1,288
 56.0333842534 194.813476562 56.0333842534 194.813476562 52.4609375 194.813476562 c 0,289,290
 38.7372457324 194.813476562 38.7372457324 194.813476562 35.5400390625 185.641601562 c 0,291,292
 33.8068014045 180.670083697 33.8068014045 180.670083697 29.189453125 178.913085938 c 0,293,294
 23.4972971553 176.749773007 23.4972971553 176.749773007 22.154296875 178.923828125 c 0,263,264
357.602539062 48.9853515625 m 0,295,296
 323.524843802 59.7906184429 323.524843802 59.7906184429 304.801757812 98.0234375 c 0,297,298
 289.45761014 129.354477252 289.45761014 129.354477252 286.864257812 158.096679688 c 0,299,300
 285.70304249 170.978353897 285.70304249 170.978353897 289.025390625 173.974609375 c 0,301,302
 293.579132526 178.079303451 293.579132526 178.079303451 311.698242188 171.17578125 c 0,303,304
 318.760009137 168.486345119 318.760009137 168.486345119 324.98828125 168.408203125 c 128,-1,305
 331.209020134 168.335497796 331.209020134 168.335497796 334.997070312 165.682617188 c 128,-1,306
 338.778180525 163.034596837 338.778180525 163.034596837 341.506835938 164.08203125 c 128,-1,307
 344.234854354 165.129221143 344.234854354 165.129221143 349.42578125 161.43359375 c 128,-1,308
 354.615143848 157.737304688 354.615143848 157.737304688 359.094726562 157.737304688 c 128,-1,309
 363.572003447 157.737304688 363.572003447 157.737304688 364.62890625 156.030273438 c 128,-1,310
 365.683827892 154.321797648 365.683827892 154.321797648 370.677734375 155.321289062 c 128,-1,311
 375.67152746 156.319337325 375.67152746 156.319337325 385.174804688 154.35546875 c 0,312,313
 394.929791529 152.339583951 394.929791529 152.339583951 398.208984375 151.671875 c 0,314,315
 401.733296223 150.956026842 401.733296223 150.956026842 413.215820312 146.649414062 c 128,-1,316
 424.693155684 142.345579752 424.693155684 142.345579752 434.291015625 142.9765625 c 128,-1,317
 443.890313277 143.607980758 443.890313277 143.607980758 447.532226562 140.279296875 c 0,318,319
 459.336648185 129.489257812 459.336648185 129.489257812 472.186523438 129.489257812 c 0,320,321
 478.332133054 129.489257812 478.332133054 129.489257812 479.184570312 128.109375 c 0,322,323
 480.322754795 126.268064968 480.322754795 126.268064968 472.556760607 111.162471523 c 128,-1,324
 464.790766418 96.0568780784 464.790766418 96.0568780784 458.303710938 87.494140625 c 0,325,326
 435.578406444 57.4936872724 435.578406444 57.4936872724 403.505859375 48.9130859375 c 0,327,328
 395.248592074 46.7040835133 395.248592074 46.7040835133 379.946655273 46.7281494141 c 128,-1,329
 364.644718472 46.7522153149 364.644718472 46.7522153149 357.602539062 48.9853515625 c 0,295,296
13.216796875 253.765625 m 0,330,331
 10.2585719646 265.556414678 10.2585719646 265.556414678 22.369140625 302.368164062 c 0,332,333
 39.9246206737 355.724361136 39.9246206737 355.724361136 78.3564453125 395.810546875 c 0,334,335
 97.7468874407 416.036319787 97.7468874407 416.036319787 127.994140625 435.046875 c 0,336,337
 144.655850994 445.516601562 144.655850994 445.516601562 145.637695312 445.516601562 c 0,338,339
 146.291240658 445.516601562 146.291240658 445.516601562 146.519910254 414.475544357 c 128,-1,340
 146.74857985 383.434487152 146.74857985 383.434487152 146.445910059 349.23018481 c 128,-1,341
 146.143240268 315.025882467 146.143240268 315.025882467 145.48046875 307.190429688 c 0,342,343
 144.339039122 293.682617188 144.339039122 293.682617188 141.879882812 293.682617188 c 128,-1,344
 139.419492266 293.682617188 139.419492266 293.682617188 132.499023438 290.151367188 c 128,-1,345
 125.576779219 286.620117188 125.576779219 286.620117188 120.918945312 286.620117188 c 128,-1,346
 116.259337869 286.620117188 116.259337869 286.620117188 110.696289062 284.0703125 c 128,-1,347
 105.129080712 281.518601299 105.129080712 281.518601299 94.9814453125 278.6484375 c 128,-1,348
 84.830078125 275.777720336 84.830078125 275.777720336 84.830078125 274.416015625 c 128,-1,349
 84.830078125 273.054473869 84.830078125 273.054473869 77.767578125 270.939453125 c 128,-1,350
 70.705078125 268.822656545 70.705078125 268.822656545 70.705078125 267.100585938 c 128,-1,351
 70.705078125 265.379124233 70.705078125 265.379124233 65.53515625 265.771484375 c 128,-1,352
 60.3622569957 266.165846887 60.3622569957 266.165846887 56.2666015625 264.174804688 c 0,353,354
 32.5034585511 252.634562071 32.5034585511 252.634562071 28.302734375 253.967773438 c 0,355,356
 25.3014296916 254.920878473 25.3014296916 254.920878473 23.0693359375 252.232421875 c 0,357,358
 20.5073337679 249.145225621 20.5073337679 249.145225621 17.3172607422 249.641601562 c 128,-1,359
 14.1271877164 250.137977504 14.1271877164 250.137977504 13.216796875 253.765625 c 0,330,331
363.249023438 48.4443359375 m 0,360,361
 347.618808325 52.122657488 347.618808325 52.122657488 333.287853071 63.7265342717 c 128,-1,362
 318.956897818 75.3304110554 318.956897818 75.3304110554 308.637602658 92.4466428116 c 128,-1,363
 298.318307497 109.562874568 298.318307497 109.562874568 294.134765625 128.969726562 c 0,364,365
 293.283721602 132.917340406 293.283721602 132.917340406 293.71887207 133.62109375 c 128,-1,366
 294.154022539 134.324847094 294.154022539 134.324847094 297.009765625 133.620117188 c 0,367,368
 301.107644855 132.609413554 301.107644855 132.609413554 317.877929688 131.263671875 c 128,-1,369
 334.652422927 129.915816659 334.652422927 129.915816659 341.712890625 127.803710938 c 128,-1,370
 348.791895845 125.687307315 348.791895845 125.687307315 355.836914062 124.375 c 128,-1,371
 362.895393353 123.058079801 362.895393353 123.058079801 371.162109375 119.365234375 c 128,-1,372
 379.425839954 115.671946965 379.425839954 115.671946965 391.46484375 114.541015625 c 0,373,374
 416.363692282 112.201676408 416.363692282 112.201676408 426.952148438 106.256835938 c 0,375,376
 432.745317836 103.006835938 432.745317836 103.006835938 436.248046875 103.006835938 c 0,377,378
 439.956024574 103.006835938 439.956024574 103.006835938 450.4203951 100.012734548 c 128,-1,379
 460.884765625 97.018633158 460.884765625 97.018633158 460.884765625 95.9580078125 c 0,380,381
 460.884765625 94.3507670308 460.884765625 94.3507670308 457.701727129 89.7432995454 c 128,-1,382
 454.518688632 85.1358320601 454.518688632 85.1358320601 449.835056725 79.8449166004 c 128,-1,383
 445.151424818 74.5540011407 445.151424818 74.5540011407 441.147460938 71.123046875 c 0,384,385
 403.595641596 38.9484500371 403.595641596 38.9484500371 363.249023438 48.4443359375 c 0,360,361
19.505859375 286.764648438 m 0,386,387
 19.505859375 293.986453008 19.505859375 293.986453008 29.0984638091 316.953426967 c 128,-1,388
 38.6910682433 339.920400926 38.6910682433 339.920400926 47.3818359375 353.505859375 c 0,389,390
 70.7694784077 390.067613156 70.7694784077 390.067613156 102.485351562 415.404296875 c 0,391,392
 112.690738043 423.557473443 112.690738043 423.557473443 127.822524122 433.654225003 c 128,-1,393
 142.954310202 443.750976562 142.954310202 443.750976562 144.967773438 443.750976562 c 0,394,395
 146.180725292 443.750976562 146.180725292 443.750976562 146.415039062 411.259033203 c 128,-1,396
 146.649352833 378.767089844 146.649352833 378.767089844 145.612304688 354.340820312 c 2,397,-1
 144.401367188 325.83984375 l 1,398,-1
 137.125976562 324.678710938 l 2,399,400
 129.85207549 323.517585406 129.85207549 323.517585406 126.319335938 321.283203125 c 128,-1,401
 122.788205731 319.048063391 122.788205731 319.048063391 112.63671875 316.83203125 c 128,-1,402
 102.485351562 314.614637473 102.485351562 314.614637473 102.485351562 313.190429688 c 128,-1,403
 102.485351562 311.766736928 102.485351562 311.766736928 96.7470703125 309.650390625 c 128,-1,404
 91.0188233934 307.539517456 91.0188233934 307.539517456 81.3291015625 302.915039062 c 128,-1,405
 71.6449945031 298.293240352 71.6449945031 298.293240352 63.673828125 296.791992188 c 0,406,407
 45.1841237274 293.309420851 45.1841237274 293.309420851 44.22265625 291.899414062 c 0,408,409
 43.0860485758 290.230387716 43.0860485758 290.230387716 34.5386473645 286.659627452 c 128,-1,410
 25.9912461532 283.088867188 25.9912461532 283.088867188 23.1337890625 283.088867188 c 0,411,412
 19.505859375 283.088867188 19.505859375 283.088867188 19.505859375 286.764648438 c 0,386,387
EndSplineSet
Validated: 525349
EndChar

StartChar: uniE026
Encoding: 57382 57382 35
Width: 512
GlyphClass: 2
Flags: W
LayerCount: 2
Fore
SplineSet
428 318 m 2,0,-1
 261 447 l 2,1,2
 254 454 254 454 245 447 c 2,3,-1
 84 318 l 2,4,5
 79 315 79 315 79 308 c 2,6,-1
 79 75 l 2,7,8
 79 62 79 62 92 62 c 2,9,-1
 188 62 l 2,10,11
 201 62 201 62 201 75 c 2,12,-1
 201 218 l 1,13,-1
 311 218 l 1,14,-1
 311 75 l 2,15,16
 311 62 311 62 324 62 c 2,17,-1
 420 62 l 2,18,19
 433 62 433 62 433 75 c 2,20,-1
 433 308 l 2,21,22
 433 315 433 315 428 318 c 2,0,-1
EndSplineSet
Validated: 9
EndChar

StartChar: uniE028
Encoding: 57384 57384 36
Width: 512
GlyphClass: 2
Flags: W
LayerCount: 2
Fore
SplineSet
442 392 m 2,0,-1
 422 372 l 1,1,-1
 403 353 l 1,2,-1
 378 329 l 1,3,4
 358 327 358 327 342 342 c 0,5,6
 327 358 327 358 329 378 c 1,7,-1
 392 442 l 2,8,9
 394 444 394 444 392 446 c 0,10,11
 392 447 392 447 391 447 c 1,12,-1
 391 447 l 1,13,14
 368 457 368 457 346 457 c 0,15,16
 300 457 300 457 267.5 424.5 c 128,-1,17
 235 392 235 392 235 346 c 0,18,19
 235 328 235 328 241 313 c 1,20,-1
 125 197 l 1,21,22
 96 196 96 196 75.5 175.5 c 128,-1,23
 55 155 55 155 55 126 c 128,-1,24
 55 97 55 97 76 76 c 128,-1,25
 97 55 97 55 126 55 c 128,-1,26
 155 55 155 55 175.5 75.5 c 128,-1,27
 196 96 196 96 197 125 c 1,28,-1
 313 241 l 1,29,30
 328 235 328 235 346 235 c 0,31,32
 392 235 392 235 424.5 267.5 c 128,-1,33
 457 300 457 300 457 346 c 0,34,35
 457 368 457 368 447 391 c 1,36,-1
 447 392 l 1,37,-1
 446 392 l 2,38,39
 444 394 444 394 442 392 c 2,0,-1
156 126 m 128,-1,41
 156 114 156 114 147 105.5 c 128,-1,42
 138 97 138 97 126 97 c 128,-1,43
 114 97 114 97 105.5 105.5 c 128,-1,44
 97 114 97 114 97 126 c 128,-1,45
 97 138 97 138 105.5 147 c 128,-1,46
 114 156 114 156 126 156 c 128,-1,47
 138 156 138 156 147 147 c 128,-1,40
 156 138 156 138 156 126 c 128,-1,41
EndSplineSet
Validated: 41
EndChar

StartChar: uniE027
Encoding: 57383 57383 37
Width: 512
GlyphClass: 2
Flags: W
LayerCount: 2
Fore
SplineSet
256 369 m 0,0,1
 241 369 241 369 231.5 360.5 c 128,-1,2
 222 352 222 352 222 338 c 0,3,4
 222 325 222 325 231.5 316.5 c 128,-1,5
 241 308 241 308 256 308 c 0,6,7
 272 308 272 308 281 316 c 128,-1,8
 290 324 290 324 290 338 c 0,9,10
 290 369 290 369 256 369 c 0,0,1
224 288 m 1,11,-1
 288 288 l 1,12,-1
 288 143 l 1,13,-1
 224 143 l 1,14,-1
 224 288 l 1,11,-1
256 484 m 128,-1,16
 162 484 162 484 95 417 c 128,-1,17
 28 350 28 350 28 256 c 128,-1,18
 28 162 28 162 95 95 c 128,-1,19
 162 28 162 28 256 28 c 128,-1,20
 350 28 350 28 417 95 c 128,-1,21
 484 162 484 162 484 256 c 128,-1,22
 484 350 484 350 417 417 c 128,-1,15
 350 484 350 484 256 484 c 128,-1,16
256 85 m 128,-1,24
 186 85 186 85 135.5 135.5 c 128,-1,25
 85 186 85 186 85 256 c 128,-1,26
 85 326 85 326 135.5 376.5 c 128,-1,27
 186 427 186 427 256 427 c 128,-1,28
 326 427 326 427 376.5 376.5 c 128,-1,29
 427 326 427 326 427 256 c 128,-1,30
 427 186 427 186 376.5 135.5 c 128,-1,23
 326 85 326 85 256 85 c 128,-1,24
EndSplineSet
Validated: 9
EndChar

StartChar: uniE029
Encoding: 57385 57385 38
Width: 512
GlyphClass: 2
Flags: W
LayerCount: 2
Fore
SplineSet
512 128 m 2,0,-1
 512 91 l 2,1,2
 512 84 512 84 507 79 c 0,3,4
 501 73 501 73 494 73 c 2,5,-1
 18 73 l 2,6,7
 11 73 11 73 5 79 c 0,8,9
 0 84 0 84 0 91 c 2,10,-1
 0 128 l 2,11,12
 0 134 0 134 5 141 c 0,13,14
 12 146 12 146 18 146 c 2,15,-1
 494 146 l 2,16,17
 500 146 500 146 507 141 c 0,18,19
 512 134 512 134 512 128 c 2,0,-1
402 238 m 2,20,-1
 402 201 l 2,21,22
 402 195 402 195 397 188 c 0,23,24
 390 183 390 183 384 183 c 2,25,-1
 18 183 l 2,26,27
 12 183 12 183 5 188 c 0,28,29
 0 195 0 195 0 201 c 2,30,-1
 0 238 l 2,31,32
 0 244 0 244 5 251 c 0,33,34
 12 256 12 256 18 256 c 2,35,-1
 384 256 l 2,36,37
 390 256 390 256 397 251 c 0,38,39
 402 244 402 244 402 238 c 2,20,-1
475 347 m 2,40,-1
 475 311 l 2,41,42
 475 303 475 303 470 298 c 128,-1,43
 465 293 465 293 457 293 c 2,44,-1
 18 293 l 2,45,46
 10 293 10 293 5 298 c 0,47,48
 0 305 0 305 0 311 c 2,49,-1
 0 347 l 2,50,51
 0 355 0 355 5 360 c 0,52,53
 11 366 11 366 18 366 c 2,54,-1
 457 366 l 2,55,56
 464 366 464 366 470 360 c 0,57,58
 475 356 475 356 475 347 c 2,40,-1
366 457 m 2,59,-1
 366 421 l 2,60,61
 366 412 366 412 360 408 c 0,62,63
 356 402 356 402 347 402 c 2,64,-1
 18 402 l 2,65,66
 11 402 11 402 5 408 c 0,67,68
 0 413 0 413 0 421 c 2,69,-1
 0 457 l 2,70,71
 0 463 0 463 5 470 c 0,72,73
 10 475 10 475 18 475 c 2,74,-1
 347 475 l 2,75,76
 356 475 356 475 360 470 c 0,77,78
 366 464 366 464 366 457 c 2,59,-1
EndSplineSet
Validated: 1
EndChar

StartChar: uniE02A
Encoding: 57386 57386 39
Width: 512
GlyphClass: 2
Flags: W
LayerCount: 2
Fore
SplineSet
256 256 m 128,-1,1
 242 256 242 256 233 265 c 128,-1,2
 224 274 224 274 224 288 c 2,3,-1
 224 448 l 2,4,5
 224 462 224 462 233 471 c 128,-1,6
 242 480 242 480 256 480 c 128,-1,7
 270 480 270 480 279 471 c 128,-1,8
 288 462 288 462 288 448 c 2,9,-1
 288 288 l 2,10,11
 288 274 288 274 279 265 c 128,-1,0
 270 256 270 256 256 256 c 128,-1,1
379 443 m 0,12,13
 426 412 426 412 453 363 c 128,-1,14
 480 314 480 314 480 256 c 0,15,16
 480 163 480 163 414.5 97.5 c 128,-1,17
 349 32 349 32 256 32 c 128,-1,18
 163 32 163 32 97.5 97.5 c 128,-1,19
 32 163 32 163 32 256 c 0,20,21
 32 314 32 314 59 363 c 128,-1,22
 86 412 86 412 133 443 c 0,23,24
 141 448 141 448 150 448 c 0,25,26
 164 448 164 448 173 439 c 128,-1,27
 182 430 182 430 182 416 c 0,28,29
 182 407 182 407 177 399 c 0,30,31
 173 393 173 393 170 391 c 0,32,33
 169 390 169 390 166 388 c 0,34,35
 150 376 150 376 143 369 c 0,36,37
 96 322 96 322 96 256 c 128,-1,38
 96 190 96 190 143 143 c 128,-1,39
 190 96 190 96 256 96 c 128,-1,40
 322 96 322 96 369 143 c 128,-1,41
 416 190 416 190 416 256 c 128,-1,42
 416 322 416 322 369 369 c 0,43,44
 362 376 362 376 346 388 c 2,45,-1
 344 389 l 2,46,47
 342 390 342 390 342 391 c 0,48,49
 339 393 339 393 335 399 c 0,50,51
 330 407 330 407 330 416 c 0,52,53
 330 430 330 430 339 439 c 128,-1,54
 348 448 348 448 362 448 c 0,55,56
 371 448 371 448 379 443 c 0,12,13
EndSplineSet
Validated: 1
EndChar

StartChar: uniE02B
Encoding: 57387 57387 40
Width: 512
GlyphClass: 2
Flags: W
LayerCount: 2
Fore
SplineSet
298.303710938 243.668945312 m 2,0,1
 294.357421875 243.668945312 294.357421875 243.668945312 294.357421875 247.616210938 c 2,2,-1
 294.357421875 287.893554688 l 2,3,4
 294.357421875 291.83984375 294.357421875 291.83984375 298.303710938 291.83984375 c 2,5,-1
 343.509765625 291.83984375 l 2,6,7
 347.477539062 291.83984375 347.477539062 291.83984375 347.477539062 287.872070312 c 2,8,-1
 347.477539062 247.616210938 l 2,9,10
 347.456307692 243.668945312 347.456307692 243.668945312 343.509765625 243.668945312 c 2,11,-1
 298.303710938 243.668945312 l 2,0,1
235.28515625 359.509765625 m 2,12,-1
 280.469726562 359.509765625 l 2,13,14
 284.4375 359.509765625 284.4375 359.509765625 284.4375 363.477539062 c 2,15,-1
 284.4375 403.754882812 l 2,16,17
 284.416273882 407.701171875 284.416273882 407.701171875 280.469726562 407.701171875 c 2,18,-1
 235.28515625 407.701171875 l 2,19,20
 231.338867188 407.701171875 231.338867188 407.701171875 231.338867188 403.754882812 c 2,21,-1
 231.338867188 363.477539062 l 2,22,23
 231.338867188 359.530273438 231.338867188 359.530273438 235.28515625 359.509765625 c 2,12,-1
235.28515625 301.588867188 m 2,24,25
 231.338867188 301.627453125 231.338867188 301.627453125 231.338867188 305.557617188 c 2,26,-1
 231.338867188 345.813476562 l 2,27,28
 231.338867188 349.759765625 231.338867188 349.759765625 235.28515625 349.759765625 c 2,29,-1
 280.469726562 349.759765625 l 2,30,31
 284.416273882 349.759765625 284.416273882 349.759765625 284.4375 345.813476562 c 2,32,-1
 284.4375 305.557617188 l 2,33,34
 284.416267248 301.610094659 284.416267248 301.610094659 280.469726562 301.588867188 c 2,35,-1
 235.28515625 301.588867188 l 2,24,25
172.778320312 301.588867188 m 2,36,-1
 218.004882812 301.588867188 l 2,37,38
 221.930664062 301.631327192 221.930664062 301.631327192 221.930664062 305.556640625 c 0,39,-1
 221.930664062 345.813476562 l 2,40,41
 221.930664062 349.759765625 221.930664062 349.759765625 217.984375 349.759765625 c 2,42,-1
 172.799804688 349.759765625 l 2,43,44
 168.853515625 349.759765625 168.853515625 349.759765625 168.853515625 345.813476562 c 2,45,-1
 168.853515625 305.557617188 l 2,46,47
 168.853515625 301.627834135 168.853515625 301.627834135 172.778320312 301.588867188 c 2,36,-1
109.568359375 301.588867188 m 2,48,49
 105.599609375 301.62803834 105.599609375 301.62803834 105.599609375 305.557617188 c 2,50,-1
 105.599609375 345.813476562 l 2,51,52
 105.620835493 349.759765625 105.620835493 349.759765625 109.568359375 349.759765625 c 2,53,-1
 154.7734375 349.759765625 l 2,54,55
 158.719726562 349.759765625 158.719726562 349.759765625 158.719726562 345.813476562 c 2,56,-1
 158.719726562 305.557617188 l 2,57,58
 158.719726562 301.610093305 158.719726562 301.610093305 154.7734375 301.588867188 c 2,59,-1
 109.568359375 301.588867188 l 2,48,49
235.28515625 243.668945312 m 2,60,61
 231.338867188 243.668945312 231.338867188 243.668945312 231.338867188 247.616210938 c 2,62,-1
 231.338867188 287.893554688 l 2,63,64
 231.338867188 291.83984375 231.338867188 291.83984375 235.28515625 291.83984375 c 2,65,-1
 280.469726562 291.83984375 l 2,66,67
 284.4375 291.83984375 284.4375 291.83984375 284.4375 287.872070312 c 2,68,-1
 284.4375 247.616210938 l 2,69,70
 284.41626863 243.668945312 284.41626863 243.668945312 280.469726562 243.668945312 c 2,71,-1
 235.28515625 243.668945312 l 2,60,61
172.778320312 243.668945312 m 2,72,-1
 218.004882812 243.668945312 l 2,73,74
 221.930664062 243.690175315 221.930664062 243.690175315 221.930664062 247.616210938 c 2,75,-1
 221.930664062 287.872070312 l 2,76,77
 221.930664062 291.818613748 221.930664062 291.818613748 218.004882812 291.83984375 c 2,78,-1
 172.778320312 291.83984375 l 2,79,80
 168.853515625 291.81860946 168.853515625 291.81860946 168.853515625 287.893554688 c 2,81,-1
 168.853515625 247.616210938 l 2,82,83
 168.853515625 243.668945312 168.853515625 243.668945312 172.778320312 243.668945312 c 2,72,-1
109.568359375 243.668945312 m 2,84,85
 105.599609375 243.668945312 105.599609375 243.668945312 105.599609375 247.616210938 c 2,86,-1
 105.599609375 287.872070312 l 2,87,88
 105.599609375 291.83984375 105.599609375 291.83984375 109.568359375 291.83984375 c 2,89,-1
 154.794921875 291.83984375 l 2,90,91
 158.719726562 291.818619029 158.719726562 291.818619029 158.719726562 287.893554688 c 0,92,-1
 158.719726562 247.616210938 l 2,93,94
 158.719726562 243.668945312 158.719726562 243.668945312 154.7734375 243.668945312 c 2,95,-1
 109.568359375 243.668945312 l 2,84,85
47.2744140625 243.668945312 m 2,96,-1
 92.5009765625 243.668945312 l 2,97,98
 96.4267578125 243.690175315 96.4267578125 243.690175315 96.4267578125 247.616210938 c 2,99,-1
 96.4267578125 287.872070312 l 2,100,101
 96.4267578125 291.818613748 96.4267578125 291.818613748 92.5009765625 291.83984375 c 2,102,-1
 47.2744140625 291.83984375 l 2,103,104
 43.349609375 291.818619029 43.349609375 291.818619029 43.349609375 287.893554688 c 2,105,-1
 43.349609375 247.616210938 l 2,106,107
 43.349609375 243.668945312 43.349609375 243.668945312 47.2744140625 243.668945312 c 2,96,-1
506.944335938 269.013671875 m 2,108,-1
 512 265.024414062 l 1,109,-1
 509.909179688 258.879882812 l 2,110,111
 504.818375578 246.04007338 504.818375578 246.04007338 494.827148438 236.565429688 c 0,112,113
 473.066133077 215.040039062 473.066133077 215.040039062 437.653320312 215.040039062 c 2,114,-1
 432.938476562 215.040039062 l 1,115,116
 409.875654707 156.738123272 409.875654707 156.738123272 378.474609375 121.172851562 c 0,117,118
 354.335198201 93.8609736117 354.335198201 93.8609736117 322.794921875 75.60546875 c 0,119,120
 284.509525669 53.9222055381 284.509525669 53.9222055381 241.237304688 45.9736328125 c 0,121,122
 210.760775054 40.296875 210.760775054 40.296875 179.7578125 40.296875 c 0,123,124
 179.296875 40.296875 179.296875 40.296875 178.73046875 40.298828125 c 0,125,126
 105.78619452 40.298828125 105.78619452 40.298828125 66.197265625 64.5546875 c 0,127,128
 32.330412956 85.2271777741 32.330412956 85.2271777741 14.7841796875 131.200195312 c 0,129,130
 0.282000904293 171.675129074 0.282000904293 171.675129074 0 214.611328125 c 0,131,132
 -0 216.212890625 -0 216.212890625 0.021484375 217.856445312 c 0,133,134
 0.0478520441778 224.453489654 0.0478520441778 224.453489654 4.73590034123 229.129088657 c 128,-1,135
 9.42394863829 233.804687661 9.42394863829 233.804687661 16.021484375 233.813476562 c 2,136,-1
 353.280273438 233.813476562 l 2,137,138
 375.891207812 234.629775043 375.891207812 234.629775043 390.485351562 242.7734375 c 1,139,140
 374.4395215 268.126444945 374.4395215 268.126444945 381.887695312 299.541015625 c 0,141,142
 385.842691596 316.011015157 385.842691596 316.011015157 394.944335938 330.047851562 c 2,143,-1
 399.765625 337.024414062 l 1,144,-1
 407.103515625 332.778320312 l 2,145,146
 410.937290378 330.589978297 410.937290378 330.589978297 416.488184637 326.337906484 c 128,-1,147
 422.039078897 322.085834671 422.039078897 322.085834671 431.696385675 308.143538828 c 128,-1,148
 441.353692453 294.201242985 441.353692453 294.201242985 443.711914062 278.037109375 c 1,149,150
 454.401562787 279.861206505 454.401562787 279.861206505 465.258789062 279.893554688 c 0,151,152
 493.075903627 279.893554688 493.075903627 279.893554688 506.944335938 269.013671875 c 2,108,-1
EndSplineSet
Validated: 524329
EndChar

StartChar: uniE00C
Encoding: 57356 57356 41
Width: 512
GlyphClass: 2
Flags: W
LayerCount: 2
Fore
SplineSet
149 172 m 1,0,-1
 179 142 l 1,1,2
 211 174 211 174 256 174 c 128,-1,3
 301 174 301 174 333 142 c 1,4,-1
 363 172 l 1,5,6
 320 217 320 217 256 217 c 128,-1,7
 192 217 192 217 149 172 c 1,0,-1
80 241 m 1,8,-1
 110 211 l 1,9,10
 172 271 172 271 256 271 c 128,-1,11
 340 271 340 271 402 211 c 1,12,-1
 432 241 l 1,13,14
 359 314 359 314 256 314 c 128,-1,15
 153 314 153 314 80 241 c 1,8,-1
256 411 m 128,-1,17
 112 411 112 411 11 310 c 1,18,-1
 42 280 l 1,19,20
 131 369 131 369 256 369 c 128,-1,21
 381 369 381 369 470 280 c 1,22,-1
 501 310 l 1,23,16
 400 411 400 411 256 411 c 128,-1,17
256 128 m 128,-1,25
 242 128 242 128 233 119 c 128,-1,26
 224 110 224 110 224 96 c 128,-1,27
 224 82 224 82 233 73 c 128,-1,28
 242 64 242 64 256 64 c 128,-1,29
 270 64 270 64 279 73 c 128,-1,30
 288 82 288 82 288 96 c 128,-1,31
 288 110 288 110 279 119 c 128,-1,24
 270 128 270 128 256 128 c 128,-1,25
EndSplineSet
Validated: 9
EndChar

StartChar: uniE00F
Encoding: 57359 57359 42
Width: 512
GlyphClass: 2
Flags: W
LayerCount: 2
Fore
SplineSet
352 384 m 1,0,-1
 256 384 l 1,1,-1
 256 64 l 1,2,-1
 352 64 l 1,3,-1
 352 384 l 1,0,-1
480 288 m 1,4,-1
 384 288 l 1,5,-1
 384 64 l 1,6,-1
 480 64 l 1,7,-1
 480 288 l 1,4,-1
32 32 m 1,8,-1
 32 96 l 1,9,-1
 64 96 l 1,10,-1
 64 128 l 1,11,-1
 32 128 l 1,12,-1
 32 192 l 1,13,-1
 64 192 l 1,14,-1
 64 224 l 1,15,-1
 32 224 l 1,16,-1
 32 288 l 1,17,-1
 64 288 l 1,18,-1
 64 320 l 1,19,-1
 32 320 l 1,20,-1
 32 384 l 1,21,-1
 64 384 l 1,22,-1
 64 416 l 1,23,-1
 32 416 l 1,24,-1
 32 480 l 1,25,-1
 64 480 l 1,26,-1
 64 512 l 1,27,-1
 0 512 l 1,28,-1
 0 0 l 1,29,-1
 512 0 l 1,30,-1
 512 32 l 1,31,-1
 32 32 l 1,8,-1
224 224 m 1,32,-1
 128 224 l 1,33,-1
 128 64 l 1,34,-1
 224 64 l 1,35,-1
 224 224 l 1,32,-1
EndSplineSet
Validated: 9
EndChar

StartChar: uniE007
Encoding: 57351 57351 43
Width: 512
GlyphClass: 2
Flags: W
LayerCount: 2
Fore
SplineSet
288 192 m 1,0,-1
 288 96 l 1,1,-1
 352 96 l 1,2,-1
 256 0 l 1,3,-1
 160 96 l 1,4,-1
 224 96 l 1,5,-1
 224 192 l 1,6,-1
 288 192 l 1,0,-1
224 320 m 1,7,-1
 224 416 l 1,8,-1
 160 416 l 1,9,-1
 256 512 l 1,10,-1
 352 416 l 1,11,-1
 288 416 l 1,12,-1
 288 320 l 1,13,-1
 224 320 l 1,7,-1
192 224 m 1,14,-1
 96 224 l 1,15,-1
 96 160 l 1,16,-1
 0 256 l 1,17,-1
 96 352 l 1,18,-1
 96 288 l 1,19,-1
 192 288 l 1,20,-1
 192 224 l 1,14,-1
320 288 m 1,21,-1
 416 288 l 1,22,-1
 416 352 l 1,23,-1
 512 256 l 1,24,-1
 416 160 l 1,25,-1
 416 224 l 1,26,-1
 320 224 l 1,27,-1
 320 288 l 1,21,-1
EndSplineSet
Validated: 1
EndChar

StartChar: uniE01D
Encoding: 57373 57373 44
Width: 512
GlyphClass: 2
Flags: W
LayerCount: 2
Fore
SplineSet
431 389 m 1,0,-1
 435 387 l 2,1,2
 453 377 453 377 466 355 c 0,3,4
 476 336 476 336 476 306 c 0,5,6
 476 240 476 240 420 199 c 0,7,8
 367 158 367 158 263 158 c 2,9,-1
 248 158 l 2,10,11
 240 158 240 158 231 152 c 0,12,13
 222 143 222 143 221 137 c 2,14,-1
 203 57 l 2,15,16
 197 36 197 36 176 36 c 2,17,-1
 122 36 l 2,18,19
 113 36 113 36 107 42 c 0,20,21
 102 50 102 50 104 57 c 2,22,-1
 107 70 l 1,23,-1
 142 70 l 2,24,25
 150 70 150 70 159 76 c 0,26,27
 166 83 166 83 169 91 c 2,28,-1
 187 171 l 2,29,30
 193 191 193 191 214 191 c 2,31,-1
 229 191 l 2,32,33
 328 191 328 191 386 232 c 0,34,35
 442 274 442 274 442 340 c 0,36,37
 442 367 442 367 431 389 c 1,0,-1
134 125 m 2,38,39
 133 118 133 118 125 110 c 0,40,41
 114 103 114 103 108 103 c 2,42,-1
 53 103 l 2,43,44
 44 103 44 103 39 110 c 128,-1,45
 34 117 34 117 37 125 c 2,46,-1
 114 456 l 2,47,48
 119 476 119 476 140 476 c 2,49,-1
 255 476 l 2,50,51
 298 476 298 476 319 472 c 0,52,53
 349 466 349 466 367 455 c 0,54,55
 387 441 387 441 397 423 c 0,56,57
 407 404 407 404 407 374 c 0,58,59
 407 307 407 307 351 266 c 0,60,61
 296 225 296 225 195 225 c 2,62,-1
 179 225 l 2,63,64
 170 225 170 225 163 219 c 0,65,66
 155 213 155 213 153 205 c 2,67,-1
 134 125 l 2,38,39
179 316 m 1,68,69
 177 308 177 308 182 302 c 0,70,71
 188 296 188 296 195 296 c 2,72,-1
 210 296 l 2,73,74
 254 296 254 296 278 314 c 0,75,76
 303 332 303 332 303 365 c 0,77,78
 303 386 303 386 288 397 c 0,79,80
 271 408 271 408 239 408 c 2,81,-1
 222 408 l 2,82,83
 201 408 201 408 195 387 c 2,84,-1
 179 316 l 1,85,-1
 179 316 l 1,68,69
EndSplineSet
Validated: 5
EndChar

StartChar: uniE01E
Encoding: 57374 57374 45
Width: 512
GlyphClass: 2
Flags: W
LayerCount: 2
Fore
SplineSet
293 119 m 2,0,-1
 293 173 l 2,1,2
 293 177 293 177 290 180 c 128,-1,3
 287 183 287 183 283 183 c 2,4,-1
 229 183 l 2,5,6
 225 183 225 183 222 180 c 128,-1,7
 219 177 219 177 219 173 c 2,8,-1
 219 119 l 2,9,10
 219 115 219 115 222 112 c 0,11,12
 226 110 226 110 229 110 c 2,13,-1
 283 110 l 2,14,15
 286 110 286 110 290 112 c 0,16,17
 293 115 293 115 293 119 c 2,0,-1
292 226 m 2,18,-1
 297 357 l 2,19,20
 297 360 297 360 294 363 c 128,-1,21
 291 366 291 366 287 366 c 2,22,-1
 225 366 l 2,23,24
 221 366 221 366 218 363 c 128,-1,25
 215 360 215 360 215 357 c 2,26,-1
 220 226 l 2,27,28
 220 224 220 224 223 221 c 0,29,30
 225 219 225 219 229 219 c 2,31,-1
 282 219 l 2,32,33
 285 219 285 219 289 221 c 0,34,35
 292 224 292 224 292 226 c 2,18,-1
288 493 m 2,36,-1
 507 91 l 2,37,38
 518 73 518 73 507 55 c 0,39,40
 504 49 504 49 494 41 c 0,41,42
 486 37 486 37 475 37 c 2,43,-1
 37 37 l 2,44,45
 26 37 26 37 18 41 c 0,46,47
 8 49 8 49 5 55 c 0,48,49
 -6 73 -6 73 5 91 c 2,50,-1
 224 493 l 2,51,52
 227 499 227 499 237 507 c 0,53,54
 247 512 247 512 256 512 c 128,-1,55
 265 512 265 512 275 507 c 0,56,57
 285 499 285 499 288 493 c 2,36,-1
EndSplineSet
Validated: 33
EndChar
